<svg version="1.1" id="Layer_1" xmlns="http://www.w3.org/2000/svg" xmlns:xlink="http://www.w3.org/1999/xlink" x="0px" y="0px"
	 width="100%" viewBox="0 0 2048 2048" enable-background="new 0 0 2048 2048" xml:space="preserve">
<path fill="#010101" opacity="1.000000" stroke="none" 
	d="
M988.000000,2049.000000 
	C658.666687,2049.000000 329.833344,2049.000000 1.000000,2049.000000 
	C1.000000,1366.333374 1.000000,683.666687 1.000000,1.000000 
	C683.666687,1.000000 1366.333374,1.000000 2049.000000,1.000000 
	C2049.000000,683.666687 2049.000000,1366.333374 2049.000000,2049.000000 
	C1695.500000,2049.000000 1342.000000,2049.000000 988.000000,2049.000000 
M964.095154,1322.500000 
	C964.075378,1272.352783 964.075928,1222.205444 964.028259,1172.058228 
	C963.998535,1140.691040 950.697266,1116.280640 924.781006,1098.910278 
	C913.169739,1091.128052 900.305176,1085.950195 886.062805,1085.936035 
	C800.927795,1085.851685 715.792542,1085.965454 630.657532,1085.885132 
	C617.456299,1085.872681 605.129272,1089.391113 593.960449,1095.736694 
	C565.726440,1111.778198 550.544861,1136.259521 549.809631,1168.978516 
	C549.390564,1187.627563 549.686462,1206.293091 549.688293,1224.951172 
	C549.694580,1289.597168 549.513062,1354.244629 549.947083,1418.887817 
	C550.010620,1428.348145 551.826416,1438.207397 554.943848,1447.145264 
	C560.294495,1462.486084 570.333618,1474.737427 583.430481,1484.734131 
	C596.227417,1494.501953 610.349792,1500.185425 626.248901,1500.231079 
	C709.710754,1500.470947 793.173828,1500.281860 876.635864,1500.490479 
	C895.411316,1500.537476 912.701111,1497.173828 928.365662,1485.834839 
	C948.559387,1471.217651 961.908936,1451.960449 963.235840,1427.426025 
	C965.104919,1392.869629 963.954468,1358.150024 964.095154,1322.500000 
M1500.458740,833.500732 
	C1500.408447,766.677551 1500.408325,699.854309 1500.275146,633.031311 
	C1500.238892,614.810547 1496.037842,597.897766 1484.743652,582.968079 
	C1468.728516,561.797852 1447.866699,550.041626 1421.258789,549.956177 
	C1341.946167,549.701538 1262.631958,549.715515 1183.319092,549.878662 
	C1171.901489,549.902161 1160.252930,550.132751 1149.113770,552.318420 
	C1113.259155,559.353882 1086.508179,592.367981 1086.314209,629.300354 
	C1085.882568,711.455078 1086.240601,793.613708 1085.989990,875.769775 
	C1085.906494,903.139465 1094.757080,926.290955 1115.870239,944.152832 
	C1129.800781,955.938110 1145.632690,964.068787 1164.191650,964.113892 
	C1249.003174,964.320068 1333.815552,964.089172 1418.627686,964.129700 
	C1442.057373,964.140930 1461.176392,954.352905 1477.245850,938.268250 
	C1493.054688,922.444336 1500.099854,902.680542 1500.395630,880.494995 
	C1500.600098,865.166016 1500.447998,849.832336 1500.458740,833.500732 
M951.899658,588.630981 
	C935.093201,563.765320 912.306213,549.780396 881.696716,549.798889 
	C798.395508,549.849304 715.094299,549.841675 631.793091,549.850891 
	C612.293152,549.853088 594.988831,555.674744 579.754517,568.174255 
	C560.505981,583.967468 550.252258,604.342346 550.113708,628.850830 
	C549.638000,712.983704 549.836365,797.120605 549.848450,881.255981 
	C549.851624,903.424011 557.786133,922.521545 573.085083,938.479248 
	C588.760010,954.829224 607.916016,964.022705 630.680908,964.078918 
	C713.654419,964.283997 796.628906,964.097900 879.602539,964.275513 
	C891.680359,964.301331 902.971069,962.157715 913.883057,956.944458 
	C946.327454,941.443787 963.570496,915.502380 963.866211,879.938293 
	C964.542175,798.646606 963.899353,717.344788 964.225403,636.048828 
	C964.293030,619.181458 960.112488,603.852783 951.899658,588.630981 
M1502.907227,1301.389282 
	C1502.599731,1293.158325 1502.064453,1284.928345 1502.026978,1276.696167 
	C1501.910156,1251.032715 1501.985352,1225.368286 1501.978638,1199.704224 
	C1501.975098,1186.205933 1502.530640,1172.672974 1501.723511,1159.222412 
	C1501.254517,1151.404663 1500.123535,1142.919312 1496.593994,1136.137695 
	C1488.954346,1121.458862 1480.020630,1107.498657 1465.089111,1098.439941 
	C1455.546875,1092.650879 1446.098022,1086.121948 1435.188110,1084.469604 
	C1423.124146,1082.642212 1410.652588,1083.283936 1398.357910,1083.263062 
	C1386.128052,1083.242188 1373.897583,1083.933105 1361.667114,1083.938477 
	C1351.779297,1083.942871 1341.892944,1083.243530 1332.002686,1083.124634 
	C1319.245117,1082.971313 1306.482788,1082.964600 1293.725220,1083.119019 
	C1281.476196,1083.267090 1269.231567,1083.885132 1256.982910,1083.969116 
	C1235.486572,1084.116333 1213.987915,1084.098022 1192.491333,1083.971802 
	C1184.360840,1083.924072 1176.224365,1083.002075 1168.107178,1083.190308 
	C1161.353516,1083.346802 1154.145386,1083.266235 1147.991577,1085.569580 
	C1137.690308,1089.425171 1127.871582,1094.745972 1118.247803,1100.158081 
	C1113.755859,1102.684082 1109.614746,1106.394897 1106.353882,1110.412354 
	C1101.918457,1115.876953 1097.765625,1121.811646 1094.765503,1128.148071 
	C1089.229492,1139.840332 1083.747314,1151.343994 1083.817505,1165.177124 
	C1084.253174,1250.997803 1084.051758,1336.821655 1084.074951,1422.644531 
	C1084.077026,1430.403076 1084.019409,1437.876831 1087.744629,1445.383057 
	C1095.006714,1460.015503 1101.580688,1474.900757 1115.432617,1484.799927 
	C1130.972290,1495.905273 1147.446045,1504.386597 1167.374634,1502.894409 
	C1170.177612,1502.684448 1172.973511,1502.021240 1175.764282,1502.068359 
	C1185.658203,1502.235352 1195.547729,1502.842896 1205.440430,1502.879639 
	C1236.103027,1502.993652 1266.766113,1502.923096 1297.429077,1502.921387 
	C1339.686401,1502.918945 1381.944458,1503.069824 1424.200562,1502.839478 
	C1443.203491,1502.735840 1459.848022,1496.038208 1473.617310,1482.752563 
	C1481.850464,1474.808594 1489.401123,1466.490356 1494.305786,1455.771484 
	C1498.777832,1445.998291 1502.029541,1436.240723 1502.009644,1425.426758 
	C1501.944702,1390.097900 1501.944702,1354.768677 1502.026489,1319.439941 
	C1502.039673,1313.713989 1502.596069,1307.989380 1502.907227,1301.389282 
z"/>
<path fill="#FDFDFD" opacity="1.000000" stroke="none" 
	d="
M964.095154,1323.000000 
	C963.954468,1358.150024 965.104919,1392.869629 963.235840,1427.426025 
	C961.908936,1451.960449 948.559387,1471.217651 928.365662,1485.834839 
	C912.701111,1497.173828 895.411316,1500.537476 876.635864,1500.490479 
	C793.173828,1500.281860 709.710754,1500.470947 626.248901,1500.231079 
	C610.349792,1500.185425 596.227417,1494.501953 583.430481,1484.734131 
	C570.333618,1474.737427 560.294495,1462.486084 554.943848,1447.145264 
	C551.826416,1438.207397 550.010620,1428.348145 549.947083,1418.887817 
	C549.513062,1354.244629 549.694580,1289.597168 549.688293,1224.951172 
	C549.686462,1206.293091 549.390564,1187.627563 549.809631,1168.978516 
	C550.544861,1136.259521 565.726440,1111.778198 593.960449,1095.736694 
	C605.129272,1089.391113 617.456299,1085.872681 630.657532,1085.885132 
	C715.792542,1085.965454 800.927795,1085.851685 886.062805,1085.936035 
	C900.305176,1085.950195 913.169739,1091.128052 924.781006,1098.910278 
	C950.697266,1116.280640 963.998535,1140.691040 964.028259,1172.058228 
	C964.075928,1222.205444 964.075378,1272.352783 964.095154,1323.000000 
z"/>
<path fill="#FDFEFD" opacity="1.000000" stroke="none" 
	d="
M1500.457031,834.000732 
	C1500.447998,849.832336 1500.600098,865.166016 1500.395630,880.494995 
	C1500.099854,902.680542 1493.054688,922.444336 1477.245850,938.268250 
	C1461.176392,954.352905 1442.057373,964.140930 1418.627686,964.129700 
	C1333.815552,964.089172 1249.003174,964.320068 1164.191650,964.113892 
	C1145.632690,964.068787 1129.800781,955.938110 1115.870239,944.152832 
	C1094.757080,926.290955 1085.906494,903.139465 1085.989990,875.769775 
	C1086.240601,793.613708 1085.882568,711.455078 1086.314209,629.300354 
	C1086.508179,592.367981 1113.259155,559.353882 1149.113770,552.318420 
	C1160.252930,550.132751 1171.901489,549.902161 1183.319092,549.878662 
	C1262.631958,549.715515 1341.946167,549.701538 1421.258789,549.956177 
	C1447.866699,550.041626 1468.728516,561.797852 1484.743652,582.968079 
	C1496.037842,597.897766 1500.238892,614.810547 1500.275146,633.031311 
	C1500.408325,699.854309 1500.408447,766.677551 1500.457031,834.000732 
z"/>
<path fill="#FDFEFD" opacity="1.000000" stroke="none" 
	d="
M952.133789,588.913086 
	C960.112488,603.852783 964.293030,619.181458 964.225403,636.048828 
	C963.899353,717.344788 964.542175,798.646606 963.866211,879.938293 
	C963.570496,915.502380 946.327454,941.443787 913.883057,956.944458 
	C902.971069,962.157715 891.680359,964.301331 879.602539,964.275513 
	C796.628906,964.097900 713.654419,964.283997 630.680908,964.078918 
	C607.916016,964.022705 588.760010,954.829224 573.085083,938.479248 
	C557.786133,922.521545 549.851624,903.424011 549.848450,881.255981 
	C549.836365,797.120605 549.638000,712.983704 550.113708,628.850830 
	C550.252258,604.342346 560.505981,583.967468 579.754517,568.174255 
	C594.988831,555.674744 612.293152,549.853088 631.793091,549.850891 
	C715.094299,549.841675 798.395508,549.849304 881.696716,549.798889 
	C912.306213,549.780396 935.093201,563.765320 952.133789,588.913086 
z"/>
<path fill="#4D0A09" opacity="1.000000" stroke="none" 
	d="
M1502.904297,1301.826660 
	C1502.596069,1307.989380 1502.039673,1313.713989 1502.026489,1319.439941 
	C1501.944702,1354.768677 1501.944702,1390.097900 1502.009644,1425.426758 
	C1502.029541,1436.240723 1498.777832,1445.998291 1494.305786,1455.771484 
	C1489.401123,1466.490356 1481.850464,1474.808594 1473.617310,1482.752563 
	C1459.848022,1496.038208 1443.203491,1502.735840 1424.200562,1502.839478 
	C1381.944458,1503.069824 1339.686401,1502.918945 1297.429077,1502.921387 
	C1266.766113,1502.923096 1236.103027,1502.993652 1205.440430,1502.879639 
	C1195.547729,1502.842896 1185.658203,1502.235352 1175.764282,1502.068359 
	C1172.973511,1502.021240 1170.177612,1502.684448 1167.374634,1502.894409 
	C1147.446045,1504.386597 1130.972290,1495.905273 1115.432617,1484.799927 
	C1101.580688,1474.900757 1095.006714,1460.015503 1087.744629,1445.383057 
	C1084.019409,1437.876831 1084.077026,1430.403076 1084.074951,1422.644531 
	C1084.051758,1336.821655 1084.253174,1250.997803 1083.817505,1165.177124 
	C1083.747314,1151.343994 1089.229492,1139.840332 1094.765503,1128.148071 
	C1097.765625,1121.811646 1101.918457,1115.876953 1106.353882,1110.412354 
	C1109.614746,1106.394897 1113.755859,1102.684082 1118.247803,1100.158081 
	C1127.871582,1094.745972 1137.690308,1089.425171 1147.991577,1085.569580 
	C1154.145386,1083.266235 1161.353516,1083.346802 1168.107178,1083.190308 
	C1176.224365,1083.002075 1184.360840,1083.924072 1192.491333,1083.971802 
	C1213.987915,1084.098022 1235.486572,1084.116333 1256.982910,1083.969116 
	C1269.231567,1083.885132 1281.476196,1083.267090 1293.725220,1083.119019 
	C1306.482788,1082.964600 1319.245117,1082.971313 1332.002686,1083.124634 
	C1341.892944,1083.243530 1351.779297,1083.942871 1361.667114,1083.938477 
	C1373.897583,1083.933105 1386.128052,1083.242188 1398.357910,1083.263062 
	C1410.652588,1083.283936 1423.124146,1082.642212 1435.188110,1084.469604 
	C1446.098022,1086.121948 1455.546875,1092.650879 1465.089111,1098.439941 
	C1480.020630,1107.498657 1488.954346,1121.458862 1496.593994,1136.137695 
	C1500.123535,1142.919312 1501.254517,1151.404663 1501.723511,1159.222412 
	C1502.530640,1172.672974 1501.975098,1186.205933 1501.978638,1199.704224 
	C1501.985352,1225.368286 1501.910156,1251.032715 1502.026978,1276.696167 
	C1502.064453,1284.928345 1502.599731,1293.158325 1502.904297,1301.826660 
M1499.244141,1188.500000 
	C1498.740845,1176.042725 1499.703247,1163.306152 1497.395020,1151.192749 
	C1493.820435,1132.432617 1483.607788,1117.187256 1468.361694,1104.996826 
	C1452.392090,1092.227905 1434.524658,1086.701904 1414.438965,1086.711182 
	C1337.288940,1086.746826 1260.139038,1086.673218 1182.989014,1086.715332 
	C1171.728882,1086.721436 1160.570679,1086.401855 1149.367798,1089.560303 
	C1137.297607,1092.963257 1126.123779,1097.846680 1116.644043,1105.713013 
	C1096.589355,1122.354614 1087.155151,1144.745972 1087.002563,1170.223022 
	C1086.506470,1253.035645 1086.897095,1335.853271 1086.792603,1418.668701 
	C1086.772217,1434.857056 1092.297241,1449.271729 1100.357422,1462.742798 
	C1106.381104,1472.810181 1115.166382,1480.256470 1125.165039,1486.735229 
	C1137.604736,1494.795288 1150.698242,1499.267578 1165.421509,1499.269897 
	C1250.568604,1499.283081 1335.715576,1499.322510 1420.862671,1499.292480 
	C1438.020752,1499.286499 1453.628662,1494.432861 1467.102173,1483.534058 
	C1487.965454,1466.658325 1499.281616,1444.992676 1499.300781,1417.947632 
	C1499.354492,1341.798462 1499.275635,1265.649170 1499.244141,1188.500000 
z"/>
<path fill="#FB3B30" opacity="1.000000" stroke="none" 
	d="
M1499.246582,1189.000000 
	C1499.275635,1265.649170 1499.354492,1341.798462 1499.300781,1417.947632 
	C1499.281616,1444.992676 1487.965454,1466.658325 1467.102173,1483.534058 
	C1453.628662,1494.432861 1438.020752,1499.286499 1420.862671,1499.292480 
	C1335.715576,1499.322510 1250.568604,1499.283081 1165.421509,1499.269897 
	C1150.698242,1499.267578 1137.604736,1494.795288 1125.165039,1486.735229 
	C1115.166382,1480.256470 1106.381104,1472.810181 1100.357422,1462.742798 
	C1092.297241,1449.271729 1086.772217,1434.857056 1086.792603,1418.668701 
	C1086.897095,1335.853271 1086.506470,1253.035645 1087.002563,1170.223022 
	C1087.155151,1144.745972 1096.589355,1122.354614 1116.644043,1105.713013 
	C1126.123779,1097.846680 1137.297607,1092.963257 1149.367798,1089.560303 
	C1160.570679,1086.401855 1171.728882,1086.721436 1182.989014,1086.715332 
	C1260.139038,1086.673218 1337.288940,1086.746826 1414.438965,1086.711182 
	C1434.524658,1086.701904 1452.392090,1092.227905 1468.361694,1104.996826 
	C1483.607788,1117.187256 1493.820435,1132.432617 1497.395020,1151.192749 
	C1499.703247,1163.306152 1498.740845,1176.042725 1499.246582,1189.000000 
z"/>
</svg>