<svg viewBox="0 0 48 48" fill="none" xmlns="http://www.w3.org/2000/svg">
  <defs>
    <linearGradient id="gold-gradient" x1="0%" y1="0%" x2="100%" y2="100%">
      <stop offset="0%" stop-color="#ffd700"/>
      <stop offset="100%" stop-color="#f0c200"/>
    </linearGradient>
  </defs>
  <!-- Outer ring -->
  <circle cx="24" cy="24" r="22" stroke="url(#gold-gradient)" stroke-width="2" fill="none"/>
  <!-- Inner rings -->
  <circle cx="24" cy="24" r="16" stroke="url(#gold-gradient)" stroke-width="1.5" fill="none"/>
  <circle cx="24" cy="24" r="10" stroke="url(#gold-gradient)" stroke-width="1.5" fill="none"/>
  <!-- Center star -->
  <polygon points="24,6 26.5,19 40,19 29,27 32.5,40 24,32 15.5,40 19,27 8,19 21.5,19" 
           fill="url(#gold-gradient)" opacity="0.7" transform="scale(0.5) translate(24, 24)"/>
  <circle cx="24" cy="24" r="4" fill="url(#gold-gradient)"/>
  <!-- Gold emblem marks -->
  <g stroke="url(#gold-gradient)" stroke-width="1.5" stroke-linecap="round">
    <line x1="24" y1="8" x2="24" y2="12"/>
    <line x1="24" y1="36" x2="24" y2="40"/>
    <line x1="8" y1="24" x2="12" y2="24"/>
    <line x1="36" y1="24" x2="40" y2="24"/>
    <line x1="12.3" y1="12.3" x2="15" y2="15"/>
    <line x1="33" y1="33" x2="35.7" y2="35.7"/>
    <line x1="35.7" y1="12.3" x2="33" y2="15"/>
    <line x1="15" y1="33" x2="12.3" y2="35.7"/>
  </g>
</svg>