<svg version="1.1" id="Layer_1" xmlns="http://www.w3.org/2000/svg" xmlns:xlink="http://www.w3.org/1999/xlink" x="0px" y="0px"
	 width="100%" viewBox="0 0 1339 672" enable-background="new 0 0 1339 672" xml:space="preserve"
	 role="img" aria-hidden="true" focusable="false">
<style type="text/css"><![CDATA[
  /* Lighten drawing lines globally and keep stroke width consistent when scaling */
  path { stroke-opacity: 0.55; vector-effect: non-scaling-stroke; }
]]></style>
<path fill="none" opacity="1.000000" stroke="#6B6B6B" stroke-linecap="round" stroke-linejoin="round" stroke-width="3.000000"
	d="
M526.000000,509.500000 
	C523.815674,510.695435 521.507629,511.100128 518.999146,511.029816 
	C498.820038,510.464050 478.631195,511.030640 458.511353,512.195801 
	C443.126068,513.086731 427.690765,514.249756 412.470367,517.354736 
	C405.702209,518.735352 398.667175,520.946289 392.015167,520.654236 
	C378.204315,520.047974 365.323181,524.588196 351.979797,525.772278 
	C318.425934,528.749756 285.613129,536.019592 252.520706,541.622314 
	C230.744583,545.309082 209.123550,549.964233 187.514465,554.567871 
	C171.940186,557.885864 156.469757,561.710876 141.007736,565.531311 
	C121.975410,570.233826 102.893936,574.790588 84.031242,580.110718 
	C66.790047,584.973511 49.605114,590.131470 32.986649,596.967529 
	C25.231516,600.157654 17.333332,603.000000 9.499998,606.000000 
"/>
<path fill="none" opacity="1.000000" stroke="#6B6B6B" stroke-linecap="round" stroke-linejoin="round" stroke-width="7.000000"
	d="
M4.500000,376.500000 
	C16.813034,377.750366 29.132748,378.813751 41.489864,379.649811 
	C59.484844,380.867279 77.530693,380.760590 95.512756,382.356262 
	C103.457138,383.061218 111.504807,382.818115 119.504463,383.442902 
	C134.822449,384.639252 150.176483,385.372009 165.496475,386.546021 
	C175.348587,387.300964 185.190079,388.312866 194.995102,389.539124 
	C215.065338,392.049225 235.182327,394.383942 254.987625,398.558746 
	C283.074005,404.479218 310.598145,412.388855 337.523895,422.435974 
	C357.575897,429.918213 377.549774,437.505341 397.077911,446.327576 
	C405.631531,450.191864 414.824951,452.779663 422.958984,457.569641 
	C433.240143,463.623932 445.043610,466.088562 455.436249,471.619812 
	C474.669128,481.856140 495.238831,489.334686 514.018311,500.469116 
	C518.470703,503.109009 523.386230,504.820435 526.674011,509.374359 
	C527.848022,511.000519 531.034607,511.021057 533.500061,511.015594 
	C547.833252,510.983734 562.169861,511.167236 576.497986,510.895172 
	C580.643372,510.816467 584.780945,509.726868 589.000305,509.994934 
	C602.332764,510.841980 615.656555,511.994171 629.002869,512.406311 
	C641.903503,512.804688 654.647400,514.729187 667.497742,515.535522 
	C675.010010,516.006897 682.699646,516.002808 689.941406,517.743774 
	C696.600830,519.344788 703.203369,520.716675 709.991821,521.565613 
	C719.016052,522.694092 728.053040,524.105896 736.946899,525.781860 
	C747.627319,527.794373 758.393677,529.486023 769.022766,531.899658 
	C784.795654,535.481262 800.832520,537.570129 817.000000,538.500000 
"/>
<path fill="none" opacity="1.000000" stroke="#6B6B6B" stroke-linecap="round" stroke-linejoin="round" stroke-width="7.000000"
	d="
M1202.500000,481.000000 
	C1199.506958,482.982300 1196.077393,482.238251 1193.013916,481.881073 
	C1181.036621,480.484772 1169.023071,480.386871 1157.004883,479.882385 
	C1133.627808,478.901154 1111.270630,483.936310 1088.996704,489.988068 
	C1065.039551,496.497162 1040.767944,501.339722 1016.001160,503.513336 
	C1009.177368,504.112213 1002.131592,503.958771 995.569702,504.957764 
	C986.910583,506.276031 978.115967,507.537933 969.490417,509.456970 
	C952.356079,513.269043 935.133362,516.687500 918.022217,520.597107 
	C913.438538,521.644348 908.856445,522.926025 904.342712,524.567444 
	C899.602783,526.291138 893.836182,526.358337 888.504395,527.034668 
	C879.654907,528.157166 870.841553,529.562378 861.997253,530.729248 
	C855.511230,531.585083 849.003479,532.282104 842.499023,532.990967 
	C836.003479,533.698853 829.500122,534.334656 822.999939,534.999207 
	C820.619812,535.242676 818.828674,536.657288 817.088989,538.192810 
	C818.478638,541.198669 821.719849,542.330872 824.525635,542.865479 
	C839.793762,545.774719 854.933472,549.269958 869.974121,553.101685 
	C885.642639,557.093323 901.785583,559.491943 916.944824,565.147827 
	C934.929321,571.857910 953.853638,574.941406 972.060303,580.812988 
	C996.409668,588.665588 1020.616333,596.837646 1044.508179,605.978516 
	C1068.312866,615.086182 1091.108032,626.398376 1113.945801,637.610352 
	C1115.668213,638.455872 1118.750244,639.166443 1118.000000,642.500000 
"/>
<path fill="none" opacity="1.000000" stroke="#6B6B6B" stroke-linecap="round" stroke-linejoin="round" stroke-width="7.000000"
	d="
M1016.500000,399.500000 
	C1006.646606,398.071198 998.913025,391.819702 990.634705,387.255646 
	C973.030945,377.550171 957.119751,365.193146 941.464478,352.543945 
	C909.637817,326.828461 879.334778,299.196838 845.498718,276.001862 
	C827.005859,263.324799 808.509827,250.652252 789.994629,238.007874 
	C783.588623,233.633087 782.680664,233.580460 778.057800,240.041351 
	C768.886963,252.858322 755.843384,260.581299 742.499878,267.999786 
	C738.000671,270.501160 733.500000,273.000000 729.000000,275.500000 
"/>
<path fill="none" opacity="1.000000" stroke="#6B6B6B" stroke-linecap="round" stroke-linejoin="round" stroke-width="4.000000"
	d="
M647.500000,163.000000 
	C652.333313,162.833328 657.450745,161.598160 661.923645,162.787231 
	C666.830322,164.091629 671.584229,164.348816 676.498535,164.538437 
	C680.006165,164.673798 683.502930,165.478836 686.999512,165.446075 
	C702.347107,165.302307 717.680481,167.687057 732.990723,166.390244 
	C752.831970,164.709641 772.670105,165.597458 792.499939,165.611710 
	C815.000244,165.627884 837.513916,166.168610 859.995300,167.112091 
	C875.996094,167.783585 891.994080,168.170502 907.999451,168.525635 
	C916.502625,168.714294 925.135071,170.221420 933.455933,169.155716 
	C939.753784,168.349106 945.532532,168.663086 951.500000,170.000000 
"/>
<path fill="none" opacity="1.000000" stroke="#6B6B6B" stroke-linecap="round" stroke-linejoin="round" stroke-width="3.000000"
	d="
M1146.750000,314.500000 
	C1142.510010,311.607147 1137.762085,309.831238 1133.020630,307.948151 
	C1120.482178,302.968414 1110.121948,295.264771 1102.971313,283.517487 
	C1092.740112,266.709625 1078.347046,253.996201 1061.926880,243.615738 
	C1054.564697,238.961624 1048.478760,233.088516 1042.593994,226.910492 
	C1041.311157,225.563766 1039.994263,224.482697 1038.453491,223.265579 
	C1035.933594,224.928375 1034.971436,227.584229 1034.065918,230.024475 
	C1030.945557,238.434326 1024.915771,243.804459 1017.013245,247.528168 
	C1010.946655,250.386765 1004.492493,252.790344 999.103088,256.644196 
	C986.987793,265.307739 972.408997,270.653168 963.007263,283.005493 
	C960.625244,286.135101 958.153931,289.218292 956.034668,292.522217 
	C950.346313,301.390198 942.176270,307.373383 933.570190,313.105408 
	C927.376282,317.230774 921.833313,322.333313 916.000000,326.999969 
"/>
<path fill="none" opacity="1.000000" stroke="#6B6B6B" stroke-linecap="round" stroke-linejoin="round" stroke-width="3.000000"
	d="
M163.500000,440.500000 
	C159.405441,444.622925 156.085266,449.431580 153.625656,454.560272 
	C149.399414,463.372772 152.976334,467.681671 160.557159,470.336792 
	C165.881973,472.201752 171.780075,472.368561 177.498093,471.972443 
	C195.493240,470.725739 213.366730,468.131104 231.501663,468.377258 
	C249.125595,468.616486 266.126129,472.215820 282.966797,476.626801 
	C295.800659,479.988373 308.327454,484.518921 321.009308,488.470154 
	C322.250580,488.856934 322.842712,490.644775 324.500000,490.000000 
"/>
<path fill="none" opacity="1.000000" stroke="#6B6B6B" stroke-linecap="round" stroke-linejoin="round" stroke-width="4.000000"
	d="
M292.500000,182.500000 
	C276.297943,181.176605 260.130341,179.645325 243.974625,177.711990 
	C226.407288,175.609711 208.774887,173.665070 191.001846,173.383743 
	C178.834244,173.191132 166.656921,172.725998 154.503159,173.102173 
	C142.973831,173.459000 131.446838,174.121323 119.967751,175.776337 
	C116.031036,176.343903 111.719543,177.559174 107.440544,175.632004 
	C105.296524,174.666351 102.783691,176.268341 100.500000,177.000000 
"/>
<path fill="none" opacity="1.000000" stroke="#6B6B6B" stroke-linecap="round" stroke-linejoin="round" stroke-width="4.000000"
	d="
M1304.500000,214.000000 
	C1298.643555,213.536011 1292.729370,213.476028 1287.007446,211.971466 
	C1283.510132,211.051849 1280.000488,211.656403 1276.500000,211.501038 
	C1256.317505,210.605301 1236.200684,208.680115 1216.004028,207.897324 
	C1201.160767,207.322037 1186.325684,207.388687 1171.502075,207.629028 
	C1160.324951,207.810257 1149.167603,209.759140 1137.999634,209.777084 
	C1131.334961,209.787796 1124.666260,210.037994 1118.000244,209.976624 
	C1115.432129,209.952988 1112.938477,210.204849 1110.500000,211.000000 
"/>
<path fill="none" opacity="1.000000" stroke="#6B6B6B" stroke-linecap="round" stroke-linejoin="round" stroke-width="3.000000"
	d="
M418.500000,121.500000 
	C417.492371,125.041901 419.933685,127.349319 421.485931,130.008209 
	C426.039917,137.808823 430.539062,145.621338 436.475128,152.521393 
	C444.139618,161.430435 452.505005,169.431244 462.990112,175.018585 
	C474.575500,181.192245 484.634430,189.571671 495.000153,197.499802 
	C514.408875,212.344406 533.941284,227.004761 554.969055,239.551804 
	C558.445618,241.626221 562.614624,242.812408 565.000000,246.500000 
"/>
<path fill="none" opacity="1.000000" stroke="#6B6B6B" stroke-linecap="round" stroke-linejoin="round" stroke-width="4.000000"
	d="
M597.500000,486.000000 
	C593.301941,486.031616 589.282959,485.612579 585.966431,482.536163 
	C584.793579,481.448181 583.076843,481.411957 581.500732,481.511505 
	C577.499268,481.764221 573.771851,480.248840 570.044128,479.322357 
	C566.312012,478.394745 565.283569,474.736694 564.962646,471.003204 
	C564.305847,463.363770 566.778320,456.039551 566.218811,448.285767 
	C570.431946,447.778351 573.094299,449.947754 575.979431,451.053680 
	C590.214355,456.510254 604.852478,459.944702 619.961426,462.252655 
	C632.145325,464.113800 644.372192,464.329681 656.508850,464.593964 
	C663.884949,464.754608 671.507874,465.103485 679.010437,464.076416 
	C687.301331,462.941376 695.804749,463.747498 704.003052,461.511108 
	C706.653809,460.787994 709.340210,460.195526 712.020203,459.540863 
	C715.268616,466.117523 714.976318,480.952118 710.291199,485.798126 
	C707.774414,488.401398 704.895142,491.176025 700.045410,491.834503 
	C690.840942,493.084229 682.035156,491.925751 672.979675,491.288605 
	C665.194214,490.740784 657.352356,489.932068 649.499878,489.978760 
	C646.696289,489.995453 643.679932,490.613495 641.500000,488.000000 
"/>
<path fill="none" opacity="1.000000" stroke="#6B6B6B" stroke-linecap="round" stroke-linejoin="round" stroke-width="3.000000"
	d="
M1231.500000,565.500000 
	C1234.032715,567.880798 1235.148315,571.249451 1236.809692,574.110474 
	C1243.056030,584.866638 1238.113037,588.907227 1227.985840,589.846863 
	C1218.828857,590.696533 1209.660278,589.338379 1200.479004,588.163635 
	C1182.693604,585.888000 1165.002808,586.653870 1147.466064,591.373901 
	C1134.000488,594.998169 1120.876587,599.643982 1107.500000,603.500000 
"/>
<path fill="none" opacity="1.000000" stroke="#6B6B6B" stroke-linecap="round" stroke-linejoin="round" stroke-width="5.000000"
	d="
M353.000000,197.500000 
	C353.737091,201.838028 349.285004,201.399399 348.032349,201.242188 
	C342.821960,200.588226 338.923401,203.461716 335.082581,205.645264 
	C325.376251,211.163391 315.067474,215.302704 305.047394,220.099030 
	C293.686798,225.536987 281.495026,229.375763 271.056366,236.581665 
	C263.479950,241.811752 255.133133,245.405029 247.015594,249.530685 
	C237.110092,254.565033 226.233871,256.884674 215.966904,260.915680 
	C209.209244,263.568878 202.470963,266.206177 196.000000,269.500000 
"/>
<path fill="none" opacity="1.000000" stroke="#6B6B6B" stroke-linecap="round" stroke-linejoin="round" stroke-width="3.000000"
	d="
M459.500000,476.000000 
	C456.919800,477.550323 454.478333,477.436462 451.467377,476.620392 
	C434.379700,471.988953 417.061554,468.467468 399.518890,465.872375 
	C387.692474,464.122833 375.912262,462.217377 364.016388,460.856781 
	C347.542206,458.972473 331.083588,457.484558 314.500000,457.500000 
"/>
<path fill="none" opacity="1.000000" stroke="#6B6B6B" stroke-linecap="round" stroke-linejoin="round" stroke-width="4.000000"
	d="
M162.000000,441.500000 
	C159.470917,439.131958 156.511734,440.853943 154.018463,441.153656 
	C136.705948,443.234558 119.830551,447.471863 103.530373,453.581055 
	C81.674355,461.772491 61.073360,472.654449 41.036293,484.561066 
	C34.968601,488.166687 29.333319,492.499969 23.499985,496.499969 
"/>
<path fill="none" opacity="1.000000" stroke="#6B6B6B" stroke-linecap="round" stroke-linejoin="round" stroke-width="4.000000"
	d="
M141.000000,209.750000 
	C146.297318,208.245148 144.973221,213.563339 145.240936,215.046753 
	C148.341904,232.230148 152.348114,249.184174 156.996063,266.001099 
	C158.778000,272.448425 162.731750,277.672943 166.515533,282.988953 
	C167.477829,284.340912 168.631912,285.556366 169.458084,286.547028 
	C169.731415,289.505005 167.190262,290.417084 166.331848,292.428223 
	C165.200760,295.078247 163.945984,296.902954 167.469635,298.564392 
	C169.105042,299.335602 169.474899,301.177032 169.514725,302.999664 
	C169.750732,313.800446 171.247421,324.448242 173.730255,335.304443 
	C170.578430,338.049011 166.115005,339.042236 163.500000,342.500000 
"/>
<path fill="none" opacity="1.000000" stroke="#6B6B6B" stroke-linecap="round" stroke-linejoin="round" stroke-width="3.000000"
	d="
M1043.500000,525.500000 
	C1033.372803,527.037842 1023.158752,526.786377 1013.002991,526.417297 
	C989.833557,525.575378 966.663391,525.968689 943.501038,526.140930 
	C932.679199,526.221436 921.849304,527.234863 911.000793,526.968750 
	C909.479614,526.931458 907.691406,527.721924 906.500000,526.000000 
"/>
<path fill="none" opacity="1.000000" stroke="#6B6B6B" stroke-linecap="round" stroke-linejoin="round" stroke-width="3.000000"
	d="
M429.000000,461.750000 
	C426.674377,464.349365 423.771851,463.769196 421.008301,462.971222 
	C400.992828,457.191528 381.005981,451.312653 360.998199,445.506165 
	C343.199951,440.340851 325.261841,435.679291 306.972992,432.663788 
	C302.927887,431.996796 298.753174,430.752014 294.500000,431.500000 
"/>
<path fill="none" opacity="1.000000" stroke="#6B6B6B" stroke-linecap="round" stroke-linejoin="round" stroke-width="4.000000"
	d="
M690.500000,389.500000 
	C683.482178,384.437714 675.182739,382.614807 666.981262,381.660919 
	C648.076660,379.462158 629.068909,378.276154 609.999756,378.474915 
	C597.307739,378.607208 597.268982,378.486664 593.016968,390.506012 
	C591.083740,395.970642 589.360535,401.509277 587.491028,406.996948 
	C586.117737,411.028076 586.771118,412.731659 591.022644,413.342072 
	C592.889771,413.610107 593.446655,415.273315 595.000000,415.500000 
"/>
<path fill="none" opacity="1.000000" stroke="#6B6B6B" stroke-linecap="round" stroke-linejoin="round" stroke-width="3.000000"
	d="
M909.500000,458.500000 
	C902.791748,457.004303 896.134827,458.862335 889.511719,459.217834 
	C871.269958,460.196960 853.762451,465.065430 836.469421,470.909454 
	C821.044250,476.122253 807.200134,484.375702 792.995972,491.992432 
	C778.014038,500.026215 762.900696,507.822510 748.067993,516.121521 
	C744.235229,518.265991 739.334412,520.001099 738.500000,525.500000 
"/>
<path fill="none" opacity="1.000000" stroke="#6B6B6B" stroke-linecap="round" stroke-linejoin="round" stroke-width="3.000000"
	d="
M700.500000,380.000000 
	C694.689514,380.144684 689.227905,378.017273 683.531067,377.264832 
	C675.361816,376.185791 667.202881,374.910492 658.999634,374.003174 
	C649.834473,372.989441 640.676147,371.900635 631.497559,371.025696 
	C620.519592,369.979218 609.493286,369.315491 598.513428,370.613647 
	C594.806885,371.051910 591.159729,370.680634 587.500000,371.000000 
"/>
<path fill="none" opacity="1.000000" stroke="#6B6B6B" stroke-linecap="round" stroke-linejoin="round" stroke-width="3.000000"
	d="
M1043.500000,555.500000 
	C1061.333374,546.833313 1079.092041,538.008423 1097.023560,529.549988 
	C1111.407471,522.764954 1126.340454,517.309326 1141.507690,512.524231 
	C1143.549316,511.880127 1145.525269,511.311462 1147.049316,513.971741 
	C1153.352417,524.974304 1164.528442,526.842896 1175.513916,527.848572 
	C1191.125977,529.277893 1206.842407,529.528015 1222.497070,530.544678 
	C1234.605347,531.331116 1246.275879,534.015503 1257.000000,540.000000 
"/>
<path fill="none" opacity="1.000000" stroke="#6B6B6B" stroke-linecap="round" stroke-linejoin="round" stroke-width="3.000000"
	d="
M1336.500000,608.500000 
	C1316.245605,594.671265 1295.311768,582.059387 1271.978271,574.063416 
	C1260.475220,570.121521 1248.518921,567.842285 1236.499512,566.002991 
	C1235.340088,565.825623 1234.361084,566.250000 1233.500000,567.000000 
"/>
<path fill="none" opacity="1.000000" stroke="#6B6B6B" stroke-linecap="round" stroke-linejoin="round" stroke-width="3.000000"
	d="
M1008.500000,399.000000 
	C1005.616638,401.266235 1002.632202,400.400513 999.489746,399.537292 
	C983.735046,395.209625 968.892212,388.589539 953.960754,382.090088 
	C938.670532,375.434509 923.367554,368.742889 907.500000,363.500000 
"/>
<path fill="none" opacity="1.000000" stroke="#6B6B6B" stroke-linecap="round" stroke-linejoin="round" stroke-width="3.000000"
	d="
M842.500000,554.500000 
	C834.500000,553.333374 826.518799,552.011108 818.494873,551.042542 
	C810.017761,550.019409 801.511047,549.189575 792.997314,548.534851 
	C781.335938,547.638306 769.714172,546.280029 758.003174,545.901733 
	C753.179382,545.745850 748.377258,544.696716 743.500000,545.000000 
"/>
<path fill="none" opacity="1.000000" stroke="#6B6B6B" stroke-linecap="round" stroke-linejoin="round" stroke-width="3.000000"
	d="
M518.500000,523.000000 
	C516.430725,522.917786 514.556213,522.737610 512.449646,523.909546 
	C501.256592,530.136658 490.447296,536.907776 480.508606,545.010559 
	C477.747437,547.261719 477.022003,548.674194 476.375519,552.793152 
	C483.970093,553.030457 491.485992,553.239502 498.999329,553.517944 
	C500.901367,553.588440 501.614441,552.014160 502.445251,550.956970 
	C509.119690,542.463867 517.769653,535.930237 524.994690,527.995178 
	C525.712097,527.207397 526.356934,526.353516 527.133667,525.411133 
	C524.623230,523.673767 521.839539,523.475098 519.000000,523.500000 
"/>
<path fill="none" opacity="1.000000" stroke="#6B6B6B" stroke-linecap="round" stroke-linejoin="round" stroke-width="4.000000"
	d="
M57.500000,201.500000 
	C56.214916,207.931824 59.505554,213.259598 61.382187,219.038254 
	C66.258057,234.052414 68.501694,249.748138 72.536407,264.990356 
	C74.492348,272.379486 76.854797,279.660400 78.992569,287.002167 
	C80.457649,292.033661 79.139107,294.032135 73.500000,295.500000 
"/>
<path fill="none" opacity="1.000000" stroke="#6B6B6B" stroke-linecap="round" stroke-linejoin="round" stroke-width="4.000000"
	d="
M141.000000,210.500000 
	C136.226532,220.194489 133.379745,230.509552 130.971527,240.993454 
	C127.906380,254.337219 126.159424,267.815216 125.424652,281.495941 
	C124.424225,300.123260 122.480713,318.648712 116.537971,336.512634 
	C115.689674,339.062622 114.764488,341.745697 116.000000,344.500000 
"/>
<path fill="none" opacity="1.000000" stroke="#6B6B6B" stroke-linecap="round" stroke-linejoin="round" stroke-width="4.000000"
	d="
M183.500000,288.500000 
	C182.612915,296.882141 184.484848,305.142242 184.647919,313.497101 
	C184.842117,323.446075 187.501984,333.172943 188.873154,343.017670 
	C190.563293,355.152405 193.925705,367.095917 193.500000,379.500000 
"/>
<path fill="none" opacity="1.000000" stroke="#6B6B6B" stroke-linecap="round" stroke-linejoin="round" stroke-width="5.000000"
	d="
M452.500000,193.000000 
	C460.238251,194.577118 464.931183,200.868851 470.950165,205.071381 
	C477.174225,209.417145 482.562988,215.106277 489.109009,218.807236 
	C497.570831,223.591385 504.978363,230.022003 513.571838,234.357559 
	C527.703918,241.487381 542.304688,247.675476 558.500061,248.498932 
	C558.666321,248.507385 558.846985,248.542526 558.998047,248.493942 
	C568.026978,245.589447 576.279236,250.707855 584.999512,251.013397 
	C589.774353,251.180710 594.419128,252.072159 599.013123,253.456467 
	C604.337341,255.060791 609.134705,257.402008 613.007446,261.492920 
	C621.222961,270.171234 630.040833,278.196503 639.520752,285.472992 
	C641.713501,287.156067 644.084839,288.656464 646.532959,289.937042 
	C647.847595,290.624725 649.570435,291.138794 650.989136,290.927063 
	C665.450134,288.769073 679.946167,286.728241 693.995789,282.485962 
	C701.833008,280.119537 709.967041,279.657684 718.007629,279.112915 
	C733.476074,278.064880 748.979309,277.492523 764.504150,278.430939 
	C769.143860,278.711365 773.833313,278.166656 778.500000,278.000000 
"/>
<path fill="none" opacity="1.000000" stroke="#6B6B6B" stroke-linecap="round" stroke-linejoin="round" stroke-width="5.000000"
	d="
M1253.000000,325.000000 
	C1245.000000,322.083344 1236.149170,320.476257 1229.191040,315.955872 
	C1217.540283,308.386871 1204.416016,302.359924 1196.035034,290.475311 
	C1193.342041,286.656616 1190.544800,286.498047 1186.458740,288.411865 
	C1174.636108,293.949310 1164.187256,301.498566 1153.998169,309.497650 
	C1146.340576,315.509308 1139.027344,322.049683 1130.916138,327.372223 
	C1118.479492,335.533081 1105.407837,342.667633 1090.500000,345.500000 
"/>
<path fill="none" opacity="1.000000" stroke="#6B6B6B" stroke-linecap="round" stroke-linejoin="round" stroke-width="3.000000"
	d="
M943.500000,533.500000 
	C917.992310,533.608582 892.523132,535.696106 867.000366,534.986694 
	C865.131531,534.934692 863.112488,535.547852 861.500000,534.000000 
"/>
<path fill="none" opacity="1.000000" stroke="#6B6B6B" stroke-linecap="round" stroke-linejoin="round" stroke-width="3.000000"
	d="
M1286.500000,470.000000 
	C1274.345581,470.822601 1262.403809,472.983063 1250.490234,475.452820 
	C1240.537842,477.516022 1230.554688,479.982819 1220.477051,480.658325 
	C1215.379150,481.000031 1209.880127,479.501495 1204.500000,479.500000 
"/>
<path fill="none" opacity="1.000000" stroke="#6B6B6B" stroke-linecap="round" stroke-linejoin="round" stroke-width="3.000000"
	d="
M1212.500000,172.000000 
	C1213.741455,176.313217 1212.112793,181.187759 1215.861084,185.132034 
	C1217.577881,186.938644 1218.206543,188.898453 1221.043945,187.068085 
	C1221.750000,186.612534 1223.243652,186.612747 1223.960083,187.063492 
	C1228.275757,189.778778 1232.903931,190.752686 1237.979980,191.218323 
	C1241.299438,191.522858 1244.847168,193.243103 1246.521851,196.990265 
	C1248.644897,201.740860 1253.529907,199.665512 1257.048828,200.855606 
	C1264.243896,203.288940 1271.637085,205.090988 1278.548096,208.399490 
	C1279.701172,208.951477 1280.146484,209.520233 1280.500000,210.500000 
"/>
<path fill="none" opacity="1.000000" stroke="#6B6B6B" stroke-linecap="round" stroke-linejoin="round" stroke-width="3.000000"
	d="
M186.500000,162.500000 
	C180.814423,164.041275 175.499908,161.496796 169.996399,161.043839 
	C169.071320,160.967712 168.357361,160.682800 168.029922,159.985947 
	C166.467148,156.659988 163.979385,157.693375 162.039383,159.056061 
	C151.192825,166.674881 138.453506,167.479889 126.015251,169.589890 
	C121.165703,170.412567 116.241875,170.934402 111.456787,172.354370 
	C109.644440,172.892212 108.705605,173.962296 107.500000,175.000000 
"/>
<path fill="none" opacity="1.000000" stroke="#6B6B6B" stroke-linecap="round" stroke-linejoin="round" stroke-width="5.000000"
	d="
M418.250000,126.500000 
	C412.406128,130.239304 409.550568,136.624939 405.162537,141.642151 
	C396.643890,151.382126 387.071686,159.921448 377.476501,168.473648 
	C367.247559,177.590744 356.799591,186.461823 346.534943,195.539520 
	C344.922424,196.965607 342.696289,198.230972 343.000000,201.000000 
"/>
<path fill="none" opacity="1.000000" stroke="#6B6B6B" stroke-linecap="round" stroke-linejoin="round" stroke-width="3.000000"
	d="
M751.500000,138.000000 
	C749.191345,134.963226 746.538818,137.084717 743.776794,137.537277 
	C743.476135,135.867645 743.174927,134.195236 742.846558,132.371735 
	C734.614197,130.587433 727.074158,133.879089 719.517151,136.548523 
	C706.466187,141.158600 694.291870,147.751862 682.064331,154.123444 
	C676.691223,156.923309 670.769104,158.122345 665.500000,161.000000 
"/>
<path fill="none" opacity="1.000000" stroke="#6B6B6B" stroke-linecap="round" stroke-linejoin="round" stroke-width="4.000000"
	d="
M142.500000,247.500000 
	C142.450836,262.238190 144.038666,276.864594 145.497513,291.500244 
	C146.344635,299.998871 147.766449,308.496704 147.813110,317.001038 
	C147.851471,323.996002 147.309006,330.990479 147.836014,338.012299 
	C147.900452,338.870667 148.573364,341.933350 145.500000,341.500000 
"/>
<path fill="none" opacity="1.000000" stroke="#6B6B6B" stroke-linecap="round" stroke-linejoin="round" stroke-width="4.000000"
	d="
M694.500000,393.500000 
	C695.145935,402.732941 698.810120,411.581757 698.474304,421.112610 
	C682.385315,423.776672 666.673401,421.984222 651.000000,422.000000 
"/>
<path fill="none" opacity="1.000000" stroke="#6B6B6B" stroke-linecap="round" stroke-linejoin="round" stroke-width="4.000000"
	d="
M192.500000,273.500000 
	C193.586273,276.298798 196.500610,277.428680 198.251877,279.815155 
	C200.955490,283.499512 201.300003,286.166229 198.516922,289.514069 
	C198.197098,289.898773 198.110046,290.476990 197.884583,291.041870 
	C198.693527,292.853088 200.577942,293.833282 202.002930,293.863861 
	C206.523193,293.960907 206.512833,296.958801 206.472992,299.999634 
	C206.403107,305.334259 206.273376,310.672638 205.974609,315.998566 
	C205.542130,323.708374 207.208740,331.106354 209.005280,338.498718 
	C209.486343,340.478088 210.874008,342.371613 209.500000,344.500000 
"/>
<path fill="none" opacity="1.000000" stroke="#6B6B6B" stroke-linecap="round" stroke-linejoin="round" stroke-width="4.000000"
	d="
M1035.500000,329.500000 
	C1036.315186,336.131226 1032.124878,341.582794 1031.248413,347.965454 
	C1029.303223,362.129303 1026.501587,376.217560 1022.471619,389.991699 
	C1021.544617,393.160461 1020.823669,396.492218 1018.009094,398.761292 
	C1015.566345,400.730713 1018.125610,403.720276 1016.562378,406.041992 
	C1015.207214,408.054504 1013.926453,410.329468 1015.000000,413.000000 
"/>
<path fill="none" opacity="1.000000" stroke="#6B6B6B" stroke-linecap="round" stroke-linejoin="round" stroke-width="4.000000"
	d="
M701.500000,383.500000 
	C703.000000,390.833344 704.627136,398.143494 705.969055,405.505646 
	C707.808899,415.599548 708.709290,425.837708 710.207520,435.969330 
	C711.221130,442.823517 709.898682,449.806641 712.000000,456.500000 
"/>
<path fill="none" opacity="1.000000" stroke="#6B6B6B" stroke-linecap="round" stroke-linejoin="round" stroke-width="4.000000"
	d="
M1164.500000,382.500000 
	C1163.910522,394.901245 1164.249390,407.190460 1166.286011,419.535309 
	C1167.463867,426.674347 1165.984497,434.215149 1166.668335,441.484161 
	C1167.185913,446.985260 1163.131592,452.871277 1167.933960,458.061157 
	C1168.272461,458.426910 1167.651855,459.664032 1167.502319,460.500427 
	C1166.668335,465.166168 1166.861328,469.833344 1167.500000,474.500000 
"/>
<path fill="none" opacity="1.000000" stroke="#6B6B6B" stroke-linecap="round" stroke-linejoin="round" stroke-width="2.000000"
	d="
M333.500000,533.500000 
	C323.762970,534.868286 314.468048,538.044312 305.007019,540.526733 
	C290.974884,544.208557 277.138855,548.545898 263.500000,553.500000 
"/>
<path fill="none" opacity="1.000000" stroke="#6B6B6B" stroke-linecap="round" stroke-linejoin="round" stroke-width="4.000000"
	d="
M589.500000,375.500000 
	C584.500000,391.666656 579.117126,407.729614 574.694458,424.052673 
	C573.000061,430.306030 570.633789,436.712891 571.500000,443.500000 
"/>
<path fill="none" opacity="1.000000" stroke="#6B6B6B" stroke-linecap="round" stroke-linejoin="round" stroke-width="4.000000"
	d="
M452.500000,569.500000 
	C439.952789,578.474243 428.138763,588.317932 416.972687,598.971375 
	C408.610779,606.949402 399.993011,614.659119 391.505707,622.506165 
	C389.741028,624.137756 387.974915,625.804810 388.000000,628.500000 
"/>
<path fill="none" opacity="1.000000" stroke="#6B6B6B" stroke-linecap="round" stroke-linejoin="round" stroke-width="5.000000"
	d="
M1039.000000,383.500000 
	C1040.426758,388.000000 1039.073853,392.545563 1038.827637,396.990448 
	C1038.326416,406.033936 1036.998779,415.034363 1035.642334,424.021484 
	C1034.728516,430.075378 1034.111206,436.549347 1035.315674,442.435425 
	C1036.385376,447.662994 1036.104492,452.617645 1035.340332,457.474884 
	C1033.837036,467.029785 1033.981812,476.295654 1036.958008,485.513550 
	C1037.193726,486.243866 1036.833252,487.166656 1036.750000,488.000000 
"/>
<path fill="none" opacity="1.000000" stroke="#6B6B6B" stroke-linecap="round" stroke-linejoin="round" stroke-width="3.000000"
	d="
M821.500000,140.500015 
	C826.666687,138.000015 831.717773,135.210922 837.034485,133.086365 
	C841.762695,131.196960 846.430908,128.661743 852.033875,130.390182 
	C854.840271,131.255920 857.386536,128.955719 859.973999,127.934090 
	C861.613220,127.286812 862.919861,125.841362 864.517456,125.034622 
	C867.408997,123.574524 869.464050,124.759041 869.999939,128.000015 
	C871.144409,134.921677 871.144470,134.921661 874.507629,139.009293 
	C872.912292,141.333328 871.762451,143.613541 874.479797,146.022812 
	C875.803894,147.196777 877.029541,148.049591 875.709167,150.607941 
	C874.448303,153.050995 877.825378,154.034622 879.539490,154.923828 
	C886.076050,158.314682 893.301331,159.118332 900.496887,160.024826 
	C910.998108,161.347748 921.652832,161.429504 932.006592,163.973145 
	C934.404907,164.562347 936.546387,165.396637 938.000000,167.500000 
"/>
<path fill="none" opacity="1.000000" stroke="#6B6B6B" stroke-linecap="round" stroke-linejoin="round" stroke-width="3.000000"
	d="
M1198.500000,190.499969 
	C1197.833374,190.666641 1196.992310,190.631348 1196.527832,191.032242 
	C1193.055420,194.028717 1188.622070,194.626160 1184.234131,196.042450 
	C1180.698730,193.970963 1181.539795,189.009964 1178.329468,186.364426 
	C1167.556519,191.435638 1157.322021,197.860367 1145.997559,201.993195 
	C1142.680176,203.203857 1139.308838,204.268997 1136.011230,205.529373 
	C1134.548706,206.088348 1132.546753,205.908218 1132.000000,208.000000 
"/>
<path fill="none" opacity="1.000000" stroke="#6B6B6B" stroke-linecap="round" stroke-linejoin="round" stroke-width="4.000000"
	d="
M1110.000000,416.500000 
	C1111.736450,421.070496 1109.514771,425.517151 1109.261475,429.986481 
	C1108.712891,439.662903 1106.671631,449.084717 1108.151978,459.051697 
	C1109.076172,465.273712 1108.091675,472.000000 1108.500000,478.500000 
"/>
<path fill="none" opacity="1.000000" stroke="#6B6B6B" stroke-linecap="round" stroke-linejoin="round" stroke-width="4.000000"
	d="
M186.500000,208.500000 
	C185.391541,216.394684 185.454407,223.993866 187.059616,232.087341 
	C188.687866,240.297012 189.556458,248.768661 191.525665,256.993866 
	C192.372391,260.530548 192.954498,264.298462 194.658661,267.413177 
	C196.253571,270.328156 195.770508,273.118927 196.000000,276.000000 
"/>
<path fill="none" opacity="1.000000" stroke="#6B6B6B" stroke-linecap="round" stroke-linejoin="round" stroke-width="2.000000"
	d="
M607.500000,347.500000 
	C604.171265,347.240845 600.854126,347.567017 597.483521,347.125763 
	C593.119812,346.554504 590.103271,349.114105 589.032715,353.507965 
	C588.267944,356.646759 587.807617,359.859772 587.105957,363.602081 
	C594.043945,365.971191 601.336426,363.702881 608.502441,363.918121 
	C615.491150,364.128052 622.500000,363.666656 629.500000,363.500000 
"/>
<path fill="none" opacity="1.000000" stroke="#6B6B6B" stroke-linecap="round" stroke-linejoin="round" stroke-width="3.000000"
	d="
M709.500000,379.500000 
	C711.975098,373.611053 710.699768,371.435944 704.500488,371.532562 
	C695.357544,371.675049 686.482483,369.692627 677.486633,368.611450 
	C666.858459,367.334045 656.278076,365.311340 645.500000,365.500000 
"/>
<path fill="none" opacity="1.000000" stroke="#6B6B6B" stroke-linecap="round" stroke-linejoin="round" stroke-width="4.000000"
	d="
M1036.000000,337.500000 
	C1038.928345,343.572784 1039.948120,350.325165 1042.571655,356.469421 
	C1046.804810,366.383301 1051.078491,376.296844 1054.367188,386.542603 
	C1056.368896,392.778564 1057.333862,399.318359 1058.169556,405.947113 
	C1059.331299,415.161743 1062.406616,424.355530 1067.091431,432.918243 
	C1063.880859,435.971222 1059.283936,437.634827 1057.250000,442.000000 
"/>
<path fill="none" opacity="1.000000" stroke="#6B6B6B" stroke-linecap="round" stroke-linejoin="round" stroke-width="3.000000"
	d="
M1181.500000,409.500000 
	C1177.278442,408.782806 1175.835938,409.818024 1176.539795,413.492371 
	C1178.112305,421.701569 1180.451172,429.671509 1183.380981,437.544281 
	C1186.900879,447.003235 1191.339478,455.855316 1197.559570,463.769684 
	C1194.801880,467.369415 1189.825439,466.946411 1187.434326,470.420044 
	C1190.394775,474.021576 1191.867065,474.832397 1196.996216,476.016388 
	C1199.351318,476.559998 1201.850464,476.879425 1203.500000,479.000000 
"/>
<path fill="none" opacity="1.000000" stroke="#6B6B6B" stroke-linecap="round" stroke-linejoin="round" stroke-width="2.000000"
	d="
M892.500000,567.000000 
	C890.573547,568.049255 888.425720,567.719543 886.510742,567.429077 
	C869.591553,564.862854 852.564819,564.398132 835.500000,564.500000 
"/>
<path fill="none" opacity="1.000000" stroke="#6B6B6B" stroke-linecap="round" stroke-linejoin="round" stroke-width="3.000000"
	d="
M458.500000,568.500000 
	C466.170624,569.117554 473.841248,569.735107 481.831238,570.378357 
	C480.567657,575.235535 476.709839,578.016724 473.943359,581.454407 
	C461.798920,596.545044 450.145569,611.974121 440.000000,628.500000 
"/>
<path fill="none" opacity="1.000000" stroke="#6B6B6B" stroke-linecap="round" stroke-linejoin="round" stroke-width="4.000000"
	d="
M1058.500000,443.000000 
	C1061.403320,446.088379 1065.390015,445.385040 1069.569580,445.529419 
	C1069.313354,453.888641 1069.667358,461.766754 1071.482178,469.504181 
	C1072.623535,474.370148 1073.455078,479.201752 1076.317139,483.618500 
	C1077.708740,485.766113 1077.166626,489.166656 1077.500000,492.000000 
"/>
<path fill="none" opacity="1.000000" stroke="#6B6B6B" stroke-linecap="round" stroke-linejoin="round" stroke-width="5.000000"
	d="
M57.000000,213.500000 
	C53.402702,218.243469 53.910568,224.190903 52.686470,229.542648 
	C49.700954,242.595276 47.127205,255.733505 43.021694,268.506958 
	C42.851761,269.035706 43.000000,269.666656 43.000000,270.250000 
"/>
<path fill="none" opacity="1.000000" stroke="#6B6B6B" stroke-linecap="round" stroke-linejoin="round" stroke-width="5.000000"
	d="
M1005.500000,435.000000 
	C991.230286,443.864563 977.519775,453.533386 963.962769,463.449097 
	C953.982300,470.748749 945.696960,479.867218 936.525940,488.029144 
	C926.805481,496.680206 916.183411,503.530334 904.099792,508.731781 
	C890.540405,514.568481 876.550110,519.207947 862.960632,524.906067 
	C861.625977,525.465698 860.497070,526.036560 859.500000,527.000000 
"/>
<path fill="none" opacity="1.000000" stroke="#6B6B6B" stroke-linecap="round" stroke-linejoin="round" stroke-width="4.000000"
	d="
M287.500000,340.500000 
	C287.569458,344.275238 288.099457,347.824982 289.241150,351.578735 
	C291.181793,357.959290 291.904358,364.802948 292.408264,371.506897 
	C293.229462,382.432037 296.867798,392.266296 302.500000,401.500000 
"/>
<path fill="none" opacity="1.000000" stroke="#6B6B6B" stroke-linecap="round" stroke-linejoin="round" stroke-width="3.000000"
	d="
M390.000000,523.000000 
	C387.571716,526.595947 383.319824,526.048584 379.960022,526.827576 
	C365.946228,530.076599 352.234009,534.308167 338.500000,538.500000 
"/>
<path fill="none" opacity="1.000000" stroke="#6B6B6B" stroke-linecap="round" stroke-linejoin="round" stroke-width="3.000000"
	d="
M651.000000,291.500000 
	C652.884216,295.267944 656.548340,296.748871 660.000427,298.499176 
	C669.576599,303.354584 678.386414,309.565460 688.433716,313.662476 
	C694.737122,316.232819 701.171570,315.549683 707.522644,316.310944 
	C709.631287,316.563690 711.864990,316.750793 713.991333,317.059662 
	C728.606567,319.182617 742.488464,324.062927 756.538574,328.374359 
	C761.295227,329.834015 766.500000,329.833344 771.500000,330.500000 
"/>
<path fill="none" opacity="1.000000" stroke="#6B6B6B" stroke-linecap="round" stroke-linejoin="round" stroke-width="4.000000"
	d="
M1155.000000,410.000000 
	C1156.245117,411.656860 1155.192017,413.067169 1154.496094,414.498077 
	C1151.040039,421.602722 1149.485352,429.062988 1149.387817,436.998627 
	C1149.328491,441.839417 1148.495728,446.741547 1147.417114,451.481110 
	C1146.060181,457.442627 1146.355225,463.628204 1144.560181,469.518341 
	C1143.989380,471.391663 1143.317261,473.075317 1142.000000,474.500000 
"/>
<path fill="none" opacity="1.000000" stroke="#6B6B6B" stroke-linecap="round" stroke-linejoin="round" stroke-width="4.000000"
	d="
M626.500000,345.500000 
	C625.611084,340.090271 625.191467,335.037720 627.122864,329.371460 
	C628.634949,324.935516 628.214600,319.301788 625.093689,314.439850 
	C619.843628,306.260834 615.491333,306.337677 606.537476,308.645508 
	C598.770081,310.647522 594.307556,317.642700 594.559387,325.998199 
	C594.770630,333.006927 595.500000,340.000000 596.000000,347.000000 
"/>
<path fill="none" opacity="1.000000" stroke="#6B6B6B" stroke-linecap="round" stroke-linejoin="round" stroke-width="5.000000"
	d="
M614.500000,401.000000 
	C611.854004,400.587097 609.927490,402.221863 608.026306,403.538025 
	C599.432373,409.487518 592.894897,416.820282 592.502991,428.000092 
	C592.160217,437.779877 597.084900,444.921692 605.088745,449.339264 
	C614.005798,454.260956 623.933838,454.151398 633.470337,450.912689 
	C643.722168,447.431091 648.172241,439.259430 650.102844,429.019379 
	C651.494507,421.637634 648.093323,416.143433 644.500000,410.500000 
"/>
<path fill="none" opacity="1.000000" stroke="#6B6B6B" stroke-linecap="round" stroke-linejoin="round" stroke-width="3.000000"
	d="
M381.000000,284.000000 
	C390.045441,289.863678 399.282043,295.712860 409.555359,298.816772 
	C426.928650,304.065826 443.117889,312.380096 460.471802,317.593811 
	C461.542572,317.915497 462.515442,317.972961 463.499573,317.962158 
	C467.701141,317.916077 471.637787,318.325806 474.550446,321.959564 
	C475.207367,322.779144 476.500000,322.583160 477.500000,322.000000 
"/>
<path fill="none" opacity="1.000000" stroke="#6B6B6B" stroke-linecap="round" stroke-linejoin="round" stroke-width="3.000000"
	d="
M633.500000,478.500000 
	C637.967041,477.442657 642.593018,477.578430 646.980469,478.149994 
	C654.898682,479.181549 655.121277,479.289612 653.961182,470.712921 
	C646.514709,470.310791 639.007385,469.905396 631.500000,469.500000 
"/>
<path fill="none" opacity="1.000000" stroke="#6B6B6B" stroke-linecap="round" stroke-linejoin="round" stroke-width="4.000000"
	d="
M1164.000000,338.500000 
	C1161.329346,340.298157 1161.142456,343.446136 1160.616943,346.023834 
	C1157.059448,363.478119 1153.927002,381.018738 1150.428467,398.485657 
	C1149.641113,402.416656 1148.654907,406.166656 1150.500000,410.000000 
"/>
<path fill="none" opacity="1.000000" stroke="#6B6B6B" stroke-linecap="round" stroke-linejoin="round" stroke-width="3.000000"
	d="
M667.000000,342.500000 
	C669.112183,341.056091 668.979919,338.481476 669.922546,336.463837 
	C670.755554,334.680878 670.573792,332.779083 668.511230,331.482178 
	C658.987244,325.493927 648.699829,324.603943 638.014709,327.063904 
	C634.593811,327.851471 632.413574,330.109222 631.925415,333.990631 
	C631.417358,338.030762 630.315491,341.996246 629.370178,346.483276 
	C625.820129,345.876312 622.246460,348.088409 618.500000,346.500000 
"/>
<path fill="none" opacity="1.000000" stroke="#6B6B6B" stroke-linecap="round" stroke-linejoin="round" stroke-width="2.000000"
	d="
M824.500000,135.000000 
	C814.944702,133.269333 808.569031,128.452606 808.866394,118.067230 
	C804.683533,117.744667 803.384827,120.588257 802.108398,122.569817 
	C797.857666,129.168625 789.483398,129.630783 784.432373,134.935608 
	C784.119385,135.264359 782.646606,134.914230 782.035278,134.453232 
	C780.252319,133.108780 778.936218,134.416275 778.603943,135.530991 
	C777.532837,139.123856 774.216980,142.238708 776.000000,146.500000 
"/>
<path fill="none" opacity="1.000000" stroke="#6B6B6B" stroke-linecap="round" stroke-linejoin="round" stroke-width="3.000000"
	d="
M1157.000000,359.500000 
	C1148.229492,359.534241 1140.726318,363.660278 1133.010620,367.024414 
	C1124.463989,370.750824 1116.000000,374.666656 1107.500000,378.499969 
"/>
<path fill="none" opacity="1.000000" stroke="#6B6B6B" stroke-linecap="round" stroke-linejoin="round" stroke-width="4.000000"
	d="
M58.500000,251.500000 
	C61.804420,261.580872 63.417297,271.930359 64.678604,282.478638 
	C66.787537,300.115784 63.436016,317.492950 63.540890,334.999756 
	C63.548836,336.326447 62.582470,336.716156 62.000000,337.500000 
"/>
<path fill="none" opacity="1.000000" stroke="#6B6B6B" stroke-linecap="round" stroke-linejoin="round" stroke-width="4.000000"
	d="
M1174.500000,359.500000 
	C1174.938232,361.518829 1176.555298,360.503479 1177.495483,360.436371 
	C1187.658813,359.710785 1197.848022,359.950897 1208.019043,358.648895 
	C1220.688232,357.027069 1233.217285,355.004730 1245.502686,351.509338 
	C1248.651489,350.613464 1251.802002,349.677032 1255.006836,349.034119 
	C1260.816040,347.868652 1266.549805,347.382965 1272.521484,348.916290 
	C1291.846069,353.878326 1311.590454,355.894897 1331.498779,356.536926 
	C1333.174438,356.590973 1334.833374,357.166687 1336.500000,357.500000 
"/>
<path fill="none" opacity="1.000000" stroke="#6B6B6B" stroke-linecap="round" stroke-linejoin="round" stroke-width="3.000000"
	d="
M667.500000,348.000000 
	C677.882690,351.485504 688.766418,352.056030 699.591064,353.832855 
	C699.122253,350.010040 700.183777,346.509155 699.056213,342.982025 
	C697.786743,339.010834 695.166992,335.781494 691.468201,335.203522 
	C684.878540,334.173767 678.528381,330.049225 671.500000,333.000000 
"/>
<path fill="none" opacity="1.000000" stroke="#6B6B6B" stroke-linecap="round" stroke-linejoin="round" stroke-width="4.000000"
	d="
M231.500000,294.000000 
	C230.287109,297.567352 229.724625,301.243286 229.484543,304.999023 
	C228.780334,316.015350 227.592911,326.899261 222.581619,337.040344 
	C221.033386,340.173401 220.374969,343.815887 217.953522,346.457397 
	C215.848724,348.753479 217.803375,349.691833 219.000000,351.000000 
"/>
<path fill="none" opacity="1.000000" stroke="#6B6B6B" stroke-linecap="round" stroke-linejoin="round" stroke-width="3.000000"
	d="
M664.000000,328.500000 
	C665.278503,320.289886 659.826294,312.814789 651.005859,310.477814 
	C646.378662,309.251831 641.684326,309.443481 637.000610,309.532501 
	C632.509827,309.617828 630.292480,313.286407 627.500000,316.000000 
"/>
<path fill="none" opacity="1.000000" stroke="#6B6B6B" stroke-linecap="round" stroke-linejoin="round" stroke-width="3.000000"
	d="
M184.000000,226.000000 
	C180.397919,230.728516 180.719772,236.683578 179.059113,242.018402 
	C176.018204,251.787109 173.333328,261.666656 170.500000,271.500000 
"/>
<path fill="none" opacity="1.000000" stroke="#6B6B6B" stroke-linecap="round" stroke-linejoin="round" stroke-width="4.000000"
	d="
M52.500000,281.500000 
	C52.533287,282.893311 51.359741,283.529877 50.475651,283.948578 
	C40.369808,288.734833 40.075840,297.902435 40.614994,306.993195 
	C41.158203,316.152313 40.986340,324.967194 37.173775,333.576935 
	C36.295647,335.559998 35.935680,338.152893 35.393097,340.396820 
	C37.430141,343.110413 41.706051,342.522064 43.228901,346.615204 
	C35.872364,350.763123 32.970638,357.781769 31.893055,365.985962 
	C31.596340,368.244995 30.000002,370.333344 29.000002,372.500000 
"/>
<path fill="none" opacity="1.000000" stroke="#6B6B6B" stroke-linecap="round" stroke-linejoin="round" stroke-width="5.000000"
	d="
M383.500000,629.500000 
	C400.830719,630.387451 418.216919,630.121521 435.500000,632.000000 
"/>
<path fill="none" opacity="1.000000" stroke="#6B6B6B" stroke-linecap="round" stroke-linejoin="round" stroke-width="3.000000"
	d="
M287.000000,348.500000 
	C283.358368,353.844055 282.646667,360.446442 279.495270,365.997314 
	C275.514832,373.008423 271.565277,380.038879 267.440002,386.964264 
	C266.694763,388.215302 265.166687,389.000000 264.000000,390.000000 
"/>
<path fill="none" opacity="1.000000" stroke="#6B6B6B" stroke-linecap="round" stroke-linejoin="round" stroke-width="3.000000"
	d="
M231.000000,288.000000 
	C230.887039,294.122650 235.687668,298.155640 237.779266,303.388367 
	C243.921234,318.754425 249.058792,334.599945 257.381470,349.068176 
	C258.485504,350.987396 260.212524,354.239136 256.482391,355.961914 
	C254.431900,356.908905 255.073380,359.382263 253.500000,360.500000 
"/>
<path fill="none" opacity="1.000000" stroke="#6B6B6B" stroke-linecap="round" stroke-linejoin="round" stroke-width="2.000000"
	d="
M340.500000,228.500000 
	C327.266388,226.188553 314.110931,226.850204 300.994080,229.470306 
	C299.872192,229.694412 298.666656,229.500000 297.500000,229.500000 
"/>
<path fill="none" opacity="1.000000" stroke="#6B6B6B" stroke-linecap="round" stroke-linejoin="round" stroke-width="4.000000"
	d="
M1104.500000,375.500000 
	C1101.188965,377.876648 1101.889771,381.742279 1101.019653,385.005219 
	C1098.134277,395.824707 1095.024536,406.598297 1092.605347,417.523315 
	C1090.906372,425.195221 1088.967041,432.694641 1086.222900,440.082794 
	C1085.159424,442.946136 1085.990845,446.612122 1084.000000,449.500000 
"/>
<path fill="none" opacity="1.000000" stroke="#6B6B6B" stroke-linecap="round" stroke-linejoin="round" stroke-width="3.000000"
	d="
M1100.500000,381.500000 
	C1095.304932,381.834259 1090.776978,384.350494 1086.016357,386.046021 
	C1076.627441,389.389893 1067.333374,393.000031 1058.000000,396.500031 
"/>
<path fill="none" opacity="1.000000" stroke="#6B6B6B" stroke-linecap="round" stroke-linejoin="round" stroke-width="3.000000"
	d="
M1104.000000,368.500000 
	C1104.639160,377.911011 1110.047729,385.495300 1114.161377,393.416229 
	C1120.126709,404.902618 1125.161133,416.672943 1129.021973,428.993103 
	C1129.872192,431.706726 1131.054565,434.314484 1131.984985,437.005249 
	C1132.957153,439.817169 1132.854370,442.213379 1129.514160,443.535736 
	C1127.135254,444.477478 1126.152710,446.671722 1125.500000,449.000000 
"/>
<path fill="none" opacity="1.000000" stroke="#6B6B6B" stroke-linecap="round" stroke-linejoin="round" stroke-width="3.000000"
	d="
M1323.500000,346.500000 
	C1312.451050,343.667480 1301.490601,340.623657 1290.940186,336.140686 
	C1288.313232,335.024475 1286.088867,331.764526 1282.500000,333.500000 
"/>
<path fill="none" opacity="1.000000" stroke="#6B6B6B" stroke-linecap="round" stroke-linejoin="round" stroke-width="4.000000"
	d="
M705.500000,488.000000 
	C701.245605,486.815735 696.723450,486.903473 692.491333,486.764282 
	C677.457092,486.269867 662.502197,484.790497 647.498291,484.034241 
	C644.933044,483.904938 642.169067,483.396820 640.005493,485.505646 
	C638.936768,486.547302 637.566711,486.150269 636.513733,485.933411 
	C628.914490,484.368317 621.030762,485.583893 613.500000,483.500000 
"/>
<path fill="none" opacity="1.000000" stroke="#6B6B6B" stroke-linecap="round" stroke-linejoin="round" stroke-width="3.000000"
	d="
M581.000000,425.500000 
	C578.403992,429.985016 577.998413,435.081451 577.039917,440.007751 
	C576.603333,442.251587 577.656494,444.697784 579.134583,445.823303 
	C580.633545,446.964752 582.811584,448.681549 584.963074,447.898499 
	C587.280701,447.054993 587.070496,444.649628 587.026428,442.499451 
	C586.937683,438.167938 586.973816,433.833130 587.010742,429.500092 
	C587.029907,427.250549 586.832947,425.111237 585.000000,423.500000 
"/>
<path fill="none" opacity="1.000000" stroke="#6B6B6B" stroke-linecap="round" stroke-linejoin="round" stroke-width="3.000000"
	d="
M699.500000,368.500000 
	C699.991150,360.165771 697.742920,357.800049 689.003479,356.963928 
	C684.479553,356.531158 680.015930,355.556549 675.516785,354.887177 
	C660.241760,352.614746 644.939575,351.513245 629.498840,351.959381 
	C621.505493,352.190338 613.500000,352.000000 605.500000,352.000000 
	C604.833313,352.000000 604.166687,352.000000 603.500000,352.000000 
	C595.108948,352.000000 593.926147,352.913971 592.500000,360.500000 
"/>
<path fill="none" opacity="1.000000" stroke="#6B6B6B" stroke-linecap="round" stroke-linejoin="round" stroke-width="3.000000"
	d="
M999.500000,424.500000 
	C989.788757,434.061096 978.363831,441.619751 968.517273,451.018066 
	C966.729431,452.724518 965.166687,454.666687 963.500000,456.500000 
"/>
<path fill="none" opacity="1.000000" stroke="#6B6B6B" stroke-linecap="round" stroke-linejoin="round" stroke-width="2.000000"
	d="
M225.500000,154.500000 
	C222.874252,153.587738 222.183075,150.987305 221.078888,148.957092 
	C218.682434,144.550888 215.916443,143.492691 212.042114,146.553314 
	C208.346695,149.472610 205.190491,153.086655 201.433624,155.911728 
	C198.891342,157.823471 195.757339,158.995056 192.500000,159.500000 
"/>
<path fill="none" opacity="1.000000" stroke="#6B6B6B" stroke-linecap="round" stroke-linejoin="round" stroke-width="3.000000"
	d="
M862.000000,423.500000 
	C862.621277,430.008484 867.739502,434.129242 870.603577,439.444183 
	C871.463196,441.039398 871.992920,442.036926 871.654297,444.026276 
	C871.027710,447.706726 873.823730,450.683167 875.114868,453.954681 
	C875.842285,455.797943 876.833313,457.590912 877.500000,459.500000 
"/>
<path fill="none" opacity="1.000000" stroke="#6B6B6B" stroke-linecap="round" stroke-linejoin="round" stroke-width="5.000000"
	d="
M1094.500000,441.000000 
	C1092.107788,440.941162 1091.495239,443.298004 1091.154663,444.542328 
	C1089.823242,449.405762 1087.451416,453.392853 1083.513916,456.517487 
	C1082.349854,457.441193 1083.042114,458.846649 1083.037354,460.000153 
	C1083.010864,466.449524 1081.576294,472.704071 1080.422241,478.985718 
	C1080.155029,480.439880 1079.413574,482.029297 1078.000000,483.000000 
"/>
<path fill="none" opacity="1.000000" stroke="#6B6B6B" stroke-linecap="round" stroke-linejoin="round" stroke-width="3.000000"
	d="
M234.000000,323.500000 
	C232.502106,331.333038 235.092514,338.654938 237.089615,345.975555 
	C238.322296,350.494019 237.930908,355.460571 240.879211,359.586304 
	C241.397278,360.311249 240.333328,362.166656 240.000000,363.500000 
"/>
<path fill="none" opacity="1.000000" stroke="#6B6B6B" stroke-linecap="round" stroke-linejoin="round" stroke-width="3.000000"
	d="
M122.500000,300.000000 
	C110.332390,304.014923 98.682274,309.296844 87.000000,314.500000 
"/>
<path fill="none" opacity="1.000000" stroke="#6B6B6B" stroke-linecap="round" stroke-linejoin="round" stroke-width="2.000000"
	d="
M665.500000,348.000000 
	C660.666687,349.436066 655.841614,347.801056 650.997986,347.885498 
	C644.172607,348.004517 637.333313,347.333344 630.500000,347.000000 
"/>
<path fill="none" opacity="1.000000" stroke="#6B6B6B" stroke-linecap="round" stroke-linejoin="round" stroke-width="5.000000"
	d="
M1005.500000,451.500000 
	C1009.063293,452.667114 1013.443542,451.689911 1016.030090,455.758240 
	C1012.896606,458.405945 1008.686584,459.091339 1004.937317,460.306641 
	C1000.479492,461.751617 999.481079,464.748047 999.036804,468.504364 
	C998.822998,470.312408 998.745728,472.209015 999.042908,473.992859 
	C1000.524048,482.884827 998.139771,491.194153 995.542542,499.513275 
	C995.077271,501.003357 995.166748,502.666687 995.000061,504.250000 
"/>
<path fill="none" opacity="1.000000" stroke="#6B6B6B" stroke-linecap="round" stroke-linejoin="round" stroke-width="2.000000"
	d="
M1107.500000,330.000000 
	C1096.201172,332.512848 1084.853760,331.718262 1073.500000,330.500000 
"/>
<path fill="none" opacity="1.000000" stroke="#6B6B6B" stroke-linecap="round" stroke-linejoin="round" stroke-width="6.000000"
	d="
M147.250000,342.000000 
	C147.781982,353.487732 145.498840,364.706390 144.000000,376.000000 
"/>
<path fill="none" opacity="1.000000" stroke="#6B6B6B" stroke-linecap="round" stroke-linejoin="round" stroke-width="2.000000"
	d="
M1123.500000,330.000000 
	C1120.516235,327.169464 1116.786011,328.469513 1113.512817,328.690002 
	C1111.022583,328.857758 1108.842163,328.832703 1106.485596,328.042847 
	C1100.971069,326.194489 1095.209351,326.516693 1089.500000,326.500000 
"/>
<path fill="none" opacity="1.000000" stroke="#6B6B6B" stroke-linecap="round" stroke-linejoin="round" stroke-width="3.000000"
	d="
M630.000000,422.500000 
	C628.141296,418.671783 623.525757,417.010162 617.500000,418.000000 
	C613.469299,418.662109 609.783081,422.348297 609.500000,426.000000 
	C608.964050,432.912537 615.783569,438.270691 623.500000,437.000000 
"/>
<path fill="none" opacity="1.000000" stroke="#6B6B6B" stroke-linecap="round" stroke-linejoin="round" stroke-width="3.000000"
	d="
M477.500000,434.500000 
	C479.248291,438.605743 476.473145,442.005157 475.260101,445.414642 
	C474.479828,447.607819 473.961639,449.794708 473.540833,452.007751 
	C472.471436,457.631500 470.629089,462.838013 466.500000,467.000000 
"/>
<path fill="none" opacity="1.000000" stroke="#6B6B6B" stroke-linecap="round" stroke-linejoin="round" stroke-width="4.000000"
	d="
M63.500000,342.500000 
	C61.001587,343.889404 61.588169,346.361908 61.531075,348.500824 
	C61.290894,357.498871 61.166668,366.500000 61.000000,375.500000 
"/>
<path fill="none" opacity="1.000000" stroke="#6B6B6B" stroke-linecap="round" stroke-linejoin="round" stroke-width="4.000000"
	d="
M36.000000,334.000000 
	C33.133354,332.800079 31.194212,335.061188 29.028774,336.062256 
	C21.128117,339.714661 13.051058,342.774628 4.500000,344.500000 
"/>
<path fill="none" opacity="1.000000" stroke="#6B6B6B" stroke-linecap="round" stroke-linejoin="round" stroke-width="3.000000"
	d="
M959.000000,466.000000 
	C953.995667,460.141571 947.066345,457.179962 939.965881,456.264374 
	C931.769104,455.207428 923.290588,455.597900 915.000000,457.000000 
"/>
<path fill="none" opacity="1.000000" stroke="#6B6B6B" stroke-linecap="round" stroke-linejoin="round" stroke-width="3.000000"
	d="
M906.500000,476.500000 
	C906.446838,477.518921 907.234924,478.389801 906.068054,479.567444 
	C903.025269,482.638519 903.091492,486.558624 904.007080,490.498352 
	C905.210876,495.678223 903.952393,500.583923 902.572571,505.520294 
	C902.380615,506.206818 903.166687,507.166656 903.500000,508.000000 
"/>
<path fill="none" opacity="1.000000" stroke="#6B6B6B" stroke-linecap="round" stroke-linejoin="round" stroke-width="2.000000"
	d="
M887.500000,563.500000 
	C878.833313,561.666687 870.140320,559.944885 861.522156,557.906250 
	C859.791138,557.496765 858.156311,557.770142 856.500000,557.500000 
"/>
<path fill="none" opacity="1.000000" stroke="#6B6B6B" stroke-linecap="round" stroke-linejoin="round" stroke-width="3.000000"
	d="
M1274.500000,318.500000 
	C1274.875488,328.870270 1275.630859,339.209869 1277.000000,349.500000 
"/>
<path fill="none" opacity="1.000000" stroke="#6B6B6B" stroke-linecap="round" stroke-linejoin="round" stroke-width="4.000000"
	d="
M1122.500000,451.000000 
	C1125.500000,448.678894 1128.525635,450.514038 1131.490112,451.054260 
	C1133.187378,451.363586 1133.377686,452.822418 1133.576660,454.490875 
	C1134.428345,461.634583 1136.246826,468.561340 1140.604248,474.422455 
	C1141.639282,475.814575 1141.978027,476.987427 1142.000000,478.500000 
"/>
<path fill="none" opacity="1.000000" stroke="#6B6B6B" stroke-linecap="round" stroke-linejoin="round" stroke-width="3.000000"
	d="
M841.500000,482.500000 
	C841.033569,488.659943 843.804932,494.185883 845.129456,499.970367 
	C846.497559,505.945282 847.454895,511.924194 848.000000,518.000000 
"/>
<path fill="none" opacity="1.000000" stroke="#6B6B6B" stroke-linecap="round" stroke-linejoin="round" stroke-width="2.000000"
	d="
M625.500000,333.000000 
	C618.075623,328.784576 610.206421,331.456024 602.499939,331.466919 
	C599.597778,331.471039 598.575623,334.592804 596.000000,335.000000 
"/>
<path fill="none" opacity="1.000000" stroke="#6B6B6B" stroke-linecap="round" stroke-linejoin="round" stroke-width="3.000000"
	d="
M923.000000,570.000000 
	C921.262695,570.861450 919.777649,571.643372 917.473083,571.118103 
	C909.543091,569.310791 901.500000,568.000000 893.500000,566.500000 
"/>
<path fill="none" opacity="1.000000" stroke="#6B6B6B" stroke-linecap="round" stroke-linejoin="round" stroke-width="2.000000"
	d="
M682.500000,294.500000 
	C687.819641,302.406708 696.049133,306.515167 703.990906,311.016052 
	C706.273743,312.309814 709.316284,312.753754 710.000000,316.000000 
"/>
<path fill="none" opacity="1.000000" stroke="#6B6B6B" stroke-linecap="round" stroke-linejoin="round" stroke-width="3.000000"
	d="
M963.500000,391.500000 
	C955.043701,389.806335 946.746765,387.504028 938.491028,385.029846 
	C937.221802,384.649475 935.833313,384.666687 934.500000,384.500000 
"/>
<path fill="none" opacity="1.000000" stroke="#6B6B6B" stroke-linecap="round" stroke-linejoin="round" stroke-width="3.000000"
	d="
M208.999985,345.500000 
	C208.333313,346.166656 207.666656,346.833313 206.724197,347.775787 
	C209.161850,350.476471 212.798813,353.230408 212.294678,356.972351 
	C211.519058,362.729309 210.485382,368.586792 208.013123,374.005981 
	C206.278473,377.808319 204.666672,381.666656 203.000000,385.500000 
"/>
<path fill="none" opacity="1.000000" stroke="#6B6B6B" stroke-linecap="round" stroke-linejoin="round" stroke-width="3.000000"
	d="
M702.000000,433.500000 
	C706.028992,438.814087 705.386047,445.102875 704.745789,450.972260 
	C704.411682,454.034515 701.209595,456.475525 697.502319,457.015808 
	C695.078857,457.368988 692.783752,456.724945 693.618896,454.036926 
	C695.821960,446.945587 695.475830,439.234131 699.000000,432.500000 
"/>
<path fill="none" opacity="1.000000" stroke="#6B6B6B" stroke-linecap="round" stroke-linejoin="round" stroke-width="3.000000"
	d="
M426.500000,219.000000 
	C432.666656,223.166656 438.723297,227.510620 445.041656,231.432907 
	C448.781738,233.754684 452.820984,235.767715 457.500000,235.500000 
"/>
<path fill="none" opacity="1.000000" stroke="#6B6B6B" stroke-linecap="round" stroke-linejoin="round" stroke-width="4.000000"
	d="
M422.000000,420.500000 
	C423.818115,426.703766 424.427338,433.074463 424.471252,439.500183 
	C424.490875,442.369995 424.591705,445.143738 426.461273,447.530579 
	C430.963043,443.978180 430.756592,443.893524 434.592926,434.538116 
	C436.337677,430.283386 438.845337,426.375031 438.000000,421.500000 
"/>
<path fill="none" opacity="1.000000" stroke="#6B6B6B" stroke-linecap="round" stroke-linejoin="round" stroke-width="4.000000"
	d="
M422.500000,416.500000 
	C420.891266,421.838135 418.203918,426.671356 415.504364,431.502441 
	C412.221588,437.377228 406.274384,441.247437 403.500000,447.500000 
"/>
<path fill="none" opacity="1.000000" stroke="#6B6B6B" stroke-linecap="round" stroke-linejoin="round" stroke-width="2.000000"
	d="
M293.500000,236.500000 
	C286.890869,236.835464 280.937103,239.916504 274.506836,241.039139 
	C271.799133,241.511856 269.166656,243.130798 266.500000,241.000000 
"/>
<path fill="none" opacity="1.000000" stroke="#6B6B6B" stroke-linecap="round" stroke-linejoin="round" stroke-width="3.000000"
	d="
M285.000000,181.250000 
	C282.009460,175.251114 276.315735,172.244461 270.939270,169.103943 
	C267.427856,167.052841 263.333344,166.000000 259.500000,164.500000 
"/>
<path fill="none" opacity="1.000000" stroke="#6B6B6B" stroke-linecap="round" stroke-linejoin="round" stroke-width="2.000000"
	d="
M777.500000,153.500000 
	C775.898682,151.275116 773.277100,151.015366 770.984863,150.579529 
	C764.528198,149.351852 758.000000,148.500000 751.500000,147.500000 
"/>
<path fill="none" opacity="1.000000" stroke="#6B6B6B" stroke-linecap="round" stroke-linejoin="round" stroke-width="3.000000"
	d="
M806.000000,451.500000 
	C808.354980,456.785492 805.337769,461.588531 804.357056,466.471283 
	C803.231995,472.072449 802.842102,477.986542 799.584351,483.054199 
	C799.207092,483.641083 798.956177,485.146179 800.000000,486.000000 
"/>
<path fill="none" opacity="1.000000" stroke="#6B6B6B" stroke-linecap="round" stroke-linejoin="round" stroke-width="3.000000"
	d="
M75.500000,296.000000 
	C75.500000,296.666656 75.211922,297.662781 75.542267,297.951660 
	C83.175339,304.626160 85.889297,313.971191 88.905640,323.031403 
	C90.866707,328.921875 92.899536,335.322113 84.277733,339.398193 
	C91.166496,341.666748 91.291206,346.495117 91.557556,351.496948 
	C91.953255,358.927856 95.071480,365.527740 98.462051,372.019806 
	C99.677788,374.347626 101.563179,376.534485 101.000000,379.500000 
"/>
<path fill="none" opacity="1.000000" stroke="#6B6B6B" stroke-linecap="round" stroke-linejoin="round" stroke-width="3.000000"
	d="
M862.000000,429.500000 
	C860.413330,434.284363 861.456116,439.160706 861.509216,443.999908 
	C861.549194,447.641571 860.728455,451.051666 859.000000,454.250000 
"/>
<path fill="none" opacity="1.000000" stroke="#6B6B6B" stroke-linecap="round" stroke-linejoin="round" stroke-width="4.000000"
	d="
M1165.000000,338.500000 
	C1167.924072,340.513306 1167.031250,344.139954 1167.207153,346.521637 
	C1168.178589,359.668640 1172.952026,371.998383 1174.866699,384.945770 
	C1175.642456,390.191650 1177.607056,395.779663 1179.690552,400.922791 
	C1180.748779,403.534576 1179.661987,406.167603 1181.000000,408.500000 
"/>
<path fill="none" opacity="1.000000" stroke="#6B6B6B" stroke-linecap="round" stroke-linejoin="round" stroke-width="3.000000"
	d="
M762.500000,474.500000 
	C763.864258,480.796936 766.289612,486.905304 765.981140,493.499115 
	C765.892944,495.385010 767.094299,496.805054 767.500000,498.500000 
"/>
<path fill="none" opacity="1.000000" stroke="#6B6B6B" stroke-linecap="round" stroke-linejoin="round" stroke-width="2.000000"
	d="
M677.500000,406.500000 
	C669.530701,407.570648 661.562988,408.678680 653.500000,407.500000 
"/>
<path fill="none" opacity="1.000000" stroke="#6B6B6B" stroke-linecap="round" stroke-linejoin="round" stroke-width="4.000000"
	d="
M165.000000,343.000000 
	C165.166656,343.166687 165.312973,343.450043 165.502930,343.483185 
	C172.992554,344.789581 173.503113,350.169891 174.237457,356.472321 
	C175.023514,363.218506 177.774094,369.702911 183.183273,375.399658 
	C177.610672,378.348206 171.390015,378.653351 166.500000,382.000000 
"/>
<path fill="none" opacity="1.000000" stroke="#6B6B6B" stroke-linecap="round" stroke-linejoin="round" stroke-width="3.000000"
	d="
M858.000000,483.000000 
	C854.307068,491.875580 854.209106,500.878143 856.976685,510.007080 
	C857.314575,511.121826 857.333374,512.333313 857.500061,513.500000 
"/>
<path fill="none" opacity="1.000000" stroke="#6B6B6B" stroke-linecap="round" stroke-linejoin="round" stroke-width="3.000000"
	d="
M438.000000,429.500000 
	C440.617920,432.886536 440.795654,437.230164 441.730743,441.065643 
	C442.845947,445.639923 444.837677,449.379944 447.500000,453.000000 
"/>
<path fill="none" opacity="1.000000" stroke="#6B6B6B" stroke-linecap="round" stroke-linejoin="round" stroke-width="3.000000"
	d="
M752.000000,481.500000 
	C752.053162,483.333344 752.672913,484.909088 752.221191,487.046753 
	C750.668152,494.396454 750.350769,501.956329 751.000000,509.500000 
"/>
<path fill="none" opacity="1.000000" stroke="#6B6B6B" stroke-linecap="round" stroke-linejoin="round" stroke-width="3.000000"
	d="
M775.000000,143.500000 
	C769.738403,139.284698 763.134827,139.059540 756.980469,137.581436 
	C755.218262,137.158218 752.899170,136.914520 752.000000,139.500000 
"/>
<path fill="none" opacity="1.000000" stroke="#6B6B6B" stroke-linecap="round" stroke-linejoin="round" stroke-width="3.000000"
	d="
M573.000000,487.500000 
	C574.201721,491.618256 574.839233,495.888916 575.756409,500.053650 
	C576.660339,504.158691 581.124512,505.489319 581.500000,509.500000 
"/>
<path fill="none" opacity="1.000000" stroke="#6B6B6B" stroke-linecap="round" stroke-linejoin="round" stroke-width="3.000000"
	d="
M927.500000,452.500000 
	C929.163147,456.032990 927.030579,459.179077 926.536316,462.505402 
	C925.838562,467.200562 925.983276,472.136597 923.909790,476.456696 
	C921.781433,480.890991 922.195312,484.705933 925.000000,488.500000 
"/>
<path fill="none" opacity="1.000000" stroke="#6B6B6B" stroke-linecap="round" stroke-linejoin="round" stroke-width="4.000000"
	d="
M1020.500000,412.500000 
	C1021.270935,414.856110 1019.723572,416.345917 1018.512085,418.008820 
	C1015.076538,422.724518 1011.051880,426.979950 1007.921631,431.950653 
	C1006.833862,433.677887 1006.896790,435.100525 1006.826233,436.993530 
	C1006.641296,441.958801 1006.093140,447.010986 1003.500000,451.500000 
"/>
<path fill="none" opacity="1.000000" stroke="#6B6B6B" stroke-linecap="round" stroke-linejoin="round" stroke-width="3.000000"
	d="
M575.500000,401.500000 
	C566.504822,398.195618 565.483093,400.972015 563.999573,407.002197 
	C566.116333,409.418274 568.960083,408.199615 571.500000,408.500000 
"/>
<path fill="none" opacity="1.000000" stroke="#6B6B6B" stroke-linecap="round" stroke-linejoin="round" stroke-width="2.000000"
	d="
M859.999939,483.500000 
	C861.166626,490.833344 862.333313,498.166687 863.499939,505.500000 
"/>
<path fill="none" opacity="1.000000" stroke="#6B6B6B" stroke-linecap="round" stroke-linejoin="round" stroke-width="2.000000"
	d="
M257.500000,163.500000 
	C256.039459,162.136063 254.222946,162.540894 252.499939,162.502945 
	C249.988907,162.447632 247.415970,162.648804 245.498032,160.501755 
	C242.782394,157.461700 239.228256,157.183609 235.500000,157.500000 
"/>
<path fill="none" opacity="1.000000" stroke="#6B6B6B" stroke-linecap="round" stroke-linejoin="round" stroke-width="4.000000"
	d="
M122.500000,341.500000 
	C120.748344,345.992401 119.855484,351.019257 115.480865,353.971649 
	C112.217285,356.174255 111.049706,359.664001 110.681976,363.019928 
	C110.324341,366.283936 109.251305,368.931824 107.500000,371.500000 
"/>
<path fill="none" opacity="1.000000" stroke="#6B6B6B" stroke-linecap="round" stroke-linejoin="round" stroke-width="5.000000"
	d="
M684.500000,436.500000 
	C679.778076,435.976196 674.820068,437.886383 670.342102,434.191345 
	C669.035767,433.113403 665.833313,434.333344 663.500000,434.500000 
"/>
<path fill="none" opacity="1.000000" stroke="#6B6B6B" stroke-linecap="round" stroke-linejoin="round" stroke-width="3.000000"
	d="
M530.500000,474.500000 
	C530.334229,479.192596 528.554504,483.452423 526.402100,487.447266 
	C524.985718,490.076019 524.362305,492.632233 524.500000,495.500000 
"/>
<path fill="none" opacity="1.000000" stroke="#6B6B6B" stroke-linecap="round" stroke-linejoin="round" stroke-width="3.000000"
	d="
M1216.000000,335.500000 
	C1219.197266,340.772614 1219.488037,347.154205 1222.489380,352.505920 
	C1223.109497,353.611542 1224.349365,354.469330 1224.000000,356.000000 
"/>
<path fill="none" opacity="1.000000" stroke="#6B6B6B" stroke-linecap="round" stroke-linejoin="round" stroke-width="2.000000"
	d="
M507.500000,447.500000 
	C507.782715,454.420319 506.267151,461.025909 504.000000,467.500000 
"/>
<path fill="none" opacity="1.000000" stroke="#6B6B6B" stroke-linecap="round" stroke-linejoin="round" stroke-width="2.000000"
	d="
M1212.500000,170.500000 
	C1205.167236,173.838623 1202.514771,180.637497 1200.068604,187.524384 
	C1199.795044,188.294495 1199.600220,188.966751 1199.000000,189.500000 
"/>
<path fill="none" opacity="1.000000" stroke="#6B6B6B" stroke-linecap="round" stroke-linejoin="round" stroke-width="3.000000"
	d="
M718.500000,423.500000 
	C719.683228,422.120544 722.504700,424.427216 722.762329,420.056610 
	C721.716370,413.705109 718.929443,412.112579 712.500000,415.500000 
"/>
<path fill="none" opacity="1.000000" stroke="#6B6B6B" stroke-linecap="round" stroke-linejoin="round" stroke-width="3.000000"
	d="
M55.500000,322.500000 
	C57.986786,329.112946 59.237377,336.158600 62.500000,342.500000 
"/>
<path fill="none" opacity="1.000000" stroke="#6B6B6B" stroke-linecap="round" stroke-linejoin="round" stroke-width="3.000000"
	d="
M495.500000,461.500000 
	C495.070068,468.181580 493.161652,474.900116 496.000000,481.500000 
"/>
<path fill="none" opacity="1.000000" stroke="#6B6B6B" stroke-linecap="round" stroke-linejoin="round" stroke-width="2.000000"
	d="
M498.000000,449.000000 
	C499.764008,455.270813 500.202057,461.792114 502.190125,468.097687 
	C503.345795,471.763031 503.194000,476.051025 504.268921,480.061920 
	C504.806824,482.068939 505.900085,483.644684 506.486877,485.504150 
	C507.101929,487.453125 508.140106,489.391113 507.000000,491.500000 
"/>
<path fill="none" opacity="1.000000" stroke="#6B6B6B" stroke-linecap="round" stroke-linejoin="round" stroke-width="3.000000"
	d="
M701.000000,497.500000 
	C699.684692,504.486237 697.009216,510.810791 692.000000,516.000000 
"/>
<path fill="none" opacity="1.000000" stroke="#6B6B6B" stroke-linecap="round" stroke-linejoin="round" stroke-width="2.000000"
	d="
M837.000000,435.500000 
	C841.101990,441.228973 842.384949,448.144928 845.000000,454.500000 
"/>
<path fill="none" opacity="1.000000" stroke="#6B6B6B" stroke-linecap="round" stroke-linejoin="round" stroke-width="3.000000"
	d="
M136.000000,306.000000 
	C138.500000,310.833344 141.019394,315.656799 143.487503,320.506348 
	C144.175644,321.858490 144.902786,323.097229 146.500000,323.500000 
"/>
<path fill="none" opacity="1.000000" stroke="#6B6B6B" stroke-linecap="round" stroke-linejoin="round" stroke-width="3.000000"
	d="
M495.999969,445.500000 
	C493.166656,453.833313 490.347961,462.171692 487.487854,470.495850 
	C486.905243,472.191376 486.166687,473.833344 485.500000,475.500000 
"/>
<path fill="none" opacity="1.000000" stroke="#6B6B6B" stroke-linecap="round" stroke-linejoin="round" stroke-width="4.000000"
	d="
M255.000000,360.000000 
	C257.474701,360.789429 259.715210,361.342560 259.595581,365.003113 
	C259.309448,373.756409 258.675018,382.622833 263.863647,390.588806 
	C264.526550,391.606567 263.333313,393.833344 262.999969,395.500000 
"/>
<path fill="none" opacity="1.000000" stroke="#6B6B6B" stroke-linecap="round" stroke-linejoin="round" stroke-width="4.000000"
	d="
M1214.000000,324.500000 
	C1214.652832,328.864868 1216.908325,333.123810 1213.657837,337.614227 
	C1212.752686,338.864594 1211.052856,341.500000 1213.500000,343.500000 
"/>
<path fill="none" opacity="1.000000" stroke="#6B6B6B" stroke-linecap="round" stroke-linejoin="round" stroke-width="2.000000"
	d="
M637.500000,404.500000 
	C631.448608,401.827545 625.508301,398.627167 618.500000,400.500000 
"/>
<path fill="none" opacity="1.000000" stroke="#6B6B6B" stroke-linecap="round" stroke-linejoin="round" stroke-width="3.000000"
	d="
M929.000000,459.500000 
	C932.921204,465.248352 933.188416,472.342865 936.000000,478.500000 
"/>
<path fill="none" opacity="1.000000" stroke="#6B6B6B" stroke-linecap="round" stroke-linejoin="round" stroke-width="3.000000"
	d="
M1274.000000,305.500000 
	C1276.333374,310.666656 1278.687744,315.824036 1280.976807,321.010254 
	C1281.312012,321.769531 1281.475342,323.173676 1281.367798,323.448151 
	C1278.678345,330.305481 1282.475952,335.561157 1285.531006,340.982483 
	C1285.903809,341.643951 1287.038452,342.345093 1286.449219,342.950500 
	C1283.316162,346.169006 1287.563721,348.283691 1287.500000,351.000000 
"/>
<path fill="none" opacity="1.000000" stroke="#6B6B6B" stroke-linecap="round" stroke-linejoin="round" stroke-width="3.000000"
	d="
M417.500000,434.500000 
	C417.500000,434.666656 417.524506,434.837585 417.496490,434.999390 
	C416.465485,440.955536 417.564575,447.088715 416.000000,453.000000 
"/>
<path fill="none" opacity="1.000000" stroke="#6B6B6B" stroke-linecap="round" stroke-linejoin="round" stroke-width="5.000000"
	d="
M600.000000,491.500000 
	C600.432373,497.738739 598.081360,503.513550 597.000000,509.500000 
"/>
<path fill="none" opacity="1.000000" stroke="#6B6B6B" stroke-linecap="round" stroke-linejoin="round" stroke-width="3.000000"
	d="
M455.000000,440.500000 
	C453.417938,446.476013 449.372711,451.437775 448.000000,457.500000 
"/>
<path fill="none" opacity="1.000000" stroke="#6B6B6B" stroke-linecap="round" stroke-linejoin="round" stroke-width="3.000000"
	d="
M468.000000,430.500000 
	C465.858551,433.436035 469.837616,434.238556 470.097992,436.488647 
	C470.515076,440.093018 471.440735,443.659790 473.000000,447.000000 
"/>
<path fill="none" opacity="1.000000" stroke="#6B6B6B" stroke-linecap="round" stroke-linejoin="round" stroke-width="3.000000"
	d="
M815.500000,452.500000 
	C813.839722,458.725708 815.995667,464.026306 819.500000,469.000000 
"/>
<path fill="none" opacity="1.000000" stroke="#6B6B6B" stroke-linecap="round" stroke-linejoin="round" stroke-width="3.000000"
	d="
M700.500000,354.000000 
	C705.872375,358.641632 704.961060,364.946594 705.000000,371.000000 
"/>
<path fill="none" opacity="1.000000" stroke="#6B6B6B" stroke-linecap="round" stroke-linejoin="round" stroke-width="5.000000"
	d="
M674.000000,497.500000 
	C674.666687,503.333344 675.333313,509.166656 676.000000,515.000000 
"/>
<path fill="none" opacity="1.000000" stroke="#6B6B6B" stroke-linecap="round" stroke-linejoin="round" stroke-width="6.000000"
	d="
M232.500000,365.500000 
	C241.120285,370.314178 239.639801,378.768158 239.856323,386.504028 
	C239.879395,387.327972 239.745056,388.513062 239.500000,389.500000 
"/>
<path fill="none" opacity="1.000000" stroke="#6B6B6B" stroke-linecap="round" stroke-linejoin="round" stroke-width="3.000000"
	d="
M838.000000,499.500000 
	C835.861023,505.149200 834.529541,510.982941 834.000000,517.000000 
"/>
<path fill="none" opacity="1.000000" stroke="#6B6B6B" stroke-linecap="round" stroke-linejoin="round" stroke-width="2.000000"
	d="
M940.500000,309.500000 
	C940.901794,311.784241 939.413452,313.086304 938.014832,314.514526 
	C934.138733,318.472656 930.333313,322.500000 926.500000,326.500000 
"/>
<path fill="none" opacity="1.000000" stroke="#6B6B6B" stroke-linecap="round" stroke-linejoin="round" stroke-width="2.000000"
	d="
M412.500000,288.500000 
	C415.264435,292.945190 419.862061,295.481140 423.601654,298.888428 
	C425.290924,300.427612 426.668091,301.748993 427.000000,304.000000 
"/>
<path fill="none" opacity="1.000000" stroke="#6B6B6B" stroke-linecap="round" stroke-linejoin="round" stroke-width="3.000000"
	d="
M848.000000,435.500000 
	C849.708191,439.166656 848.394531,442.986603 847.707764,446.441895 
	C847.302368,448.481232 847.411377,450.513000 847.000000,452.500000 
"/>
<path fill="none" opacity="1.000000" stroke="#6B6B6B" stroke-linecap="round" stroke-linejoin="round" stroke-width="4.000000"
	d="
M603.500000,481.500031 
	C599.500000,481.000031 595.503296,480.471313 591.498596,480.012207 
	C589.510193,479.784271 587.842041,480.521759 586.500000,482.000000 
"/>
<path fill="none" opacity="1.000000" stroke="#6B6B6B" stroke-linecap="round" stroke-linejoin="round" stroke-width="3.000000"
	d="
M737.000000,496.500000 
	C738.983826,500.589600 734.685364,504.323425 736.393677,508.543030 
	C737.052368,510.169983 736.355713,512.326904 738.000000,513.750000 
"/>
<path fill="none" opacity="1.000000" stroke="#6B6B6B" stroke-linecap="round" stroke-linejoin="round" stroke-width="3.000000"
	d="
M1259.000000,309.500000 
	C1257.000000,316.166656 1255.123413,322.874054 1252.943359,329.481323 
	C1251.982178,332.394348 1252.511963,334.146057 1255.532471,334.839386 
	C1254.750732,338.671173 1253.629883,342.108917 1251.089355,345.076477 
	C1250.213257,346.099731 1249.606079,347.838379 1250.000000,349.500000 
"/>
<path fill="none" opacity="1.000000" stroke="#6B6B6B" stroke-linecap="round" stroke-linejoin="round" stroke-width="2.000000"
	d="
M912.000000,456.500000 
	C911.335205,457.501251 909.982117,457.893921 909.956848,459.499329 
	C909.880798,464.338318 908.068970,468.710602 906.019531,473.009308 
	C905.167603,474.796387 905.265869,474.843231 907.500000,475.500000 
"/>
<path fill="none" opacity="1.000000" stroke="#6B6B6B" stroke-linecap="round" stroke-linejoin="round" stroke-width="3.000000"
	d="
M756.500000,487.000000 
	C755.587097,493.158051 759.285950,498.058380 761.000000,503.500000 
"/>
<path fill="none" opacity="1.000000" stroke="#6B6B6B" stroke-linecap="round" stroke-linejoin="round" stroke-width="2.000000"
	d="
M504.500000,219.500000 
	C506.363831,222.763077 509.105408,225.174576 511.967224,227.539658 
	C514.327332,229.490128 516.697571,231.590500 517.000000,235.000000 
"/>
<path fill="none" opacity="1.000000" stroke="#6B6B6B" stroke-linecap="round" stroke-linejoin="round" stroke-width="3.000000"
	d="
M913.000000,471.000000 
	C910.998352,479.319824 912.445679,487.428497 914.500000,495.500000 
"/>
<path fill="none" opacity="1.000000" stroke="#6B6B6B" stroke-linecap="round" stroke-linejoin="round" stroke-width="2.000000"
	d="
M482.500000,205.499985 
	C485.833344,208.999985 489.101654,212.565414 492.528473,215.971329 
	C494.146149,217.579132 495.427185,219.288757 496.000000,221.500000 
"/>
<path fill="none" opacity="1.000000" stroke="#6B6B6B" stroke-linecap="round" stroke-linejoin="round" stroke-width="3.000000"
	d="
M1259.500000,304.500000 
	C1260.262451,310.515594 1264.076416,314.903717 1267.500000,319.500000 
"/>
<path fill="none" opacity="1.000000" stroke="#6B6B6B" stroke-linecap="round" stroke-linejoin="round" stroke-width="3.000000"
	d="
M508.000000,459.000000 
	C510.273102,462.012054 510.551178,465.239594 510.143494,469.015503 
	C509.571533,474.313629 510.268585,479.772400 507.000000,484.500000 
"/>
<path fill="none" opacity="1.000000" stroke="#6B6B6B" stroke-linecap="round" stroke-linejoin="round" stroke-width="3.000000"
	d="
M823.500000,445.500000 
	C823.489563,453.787842 823.717407,462.096191 820.556885,470.022675 
	C820.293030,470.684326 820.833374,471.666656 821.000061,472.500000 
"/>
<path fill="none" opacity="1.000000" stroke="#6B6B6B" stroke-linecap="round" stroke-linejoin="round" stroke-width="3.000000"
	d="
M525.500000,451.500000 
	C524.947144,457.692535 527.422791,463.462036 528.049927,469.494812 
	C528.201477,470.952606 528.486938,472.589844 530.000000,473.500000 
"/>
<path fill="none" opacity="1.000000" stroke="#6B6B6B" stroke-linecap="round" stroke-linejoin="round" stroke-width="3.000000"
	d="
M791.500000,461.500000 
	C792.386353,467.738861 789.492310,473.450592 788.973755,479.497742 
	C788.840271,481.054443 787.571594,482.003510 786.500000,483.000000 
"/>
<path fill="none" opacity="1.000000" stroke="#6B6B6B" stroke-linecap="round" stroke-linejoin="round" stroke-width="3.000000"
	d="
M850.000000,441.000000 
	C853.142883,445.040253 853.548767,450.598328 857.903320,454.119537 
	C860.684265,456.368347 863.675842,458.699738 865.500000,462.000000 
"/>
<path fill="none" opacity="1.000000" stroke="#6B6B6B" stroke-linecap="round" stroke-linejoin="round" stroke-width="6.000000"
	d="
M1166.000000,323.500000 
	C1165.500000,328.166656 1165.000000,332.833344 1164.500000,337.500000 
"/>
<path fill="none" opacity="1.000000" stroke="#6B6B6B" stroke-linecap="round" stroke-linejoin="round" stroke-width="3.000000"
	d="
M739.000000,502.000000 
	C742.104004,506.281342 743.914001,511.209656 746.000000,516.000000 
"/>
<path fill="none" opacity="1.000000" stroke="#6B6B6B" stroke-linecap="round" stroke-linejoin="round" stroke-width="2.000000"
	d="
M653.500000,339.500000 
	C648.833313,340.746490 644.166687,339.403748 639.500000,339.500000 
"/>
<path fill="none" opacity="1.000000" stroke="#6B6B6B" stroke-linecap="round" stroke-linejoin="round" stroke-width="4.000000"
	d="
M864.500000,442.500000 
	C866.133545,447.073792 865.388611,451.817474 865.500000,456.500000 
"/>
<path fill="none" opacity="1.000000" stroke="#6B6B6B" stroke-linecap="round" stroke-linejoin="round" stroke-width="3.000000"
	d="
M1273.000000,301.500000 
	C1274.377319,306.108795 1270.788208,309.731537 1270.516479,314.001038 
	C1270.297974,317.435303 1266.516235,319.706879 1267.500000,323.500000 
"/>
<path fill="none" opacity="1.000000" stroke="#6B6B6B" stroke-linecap="round" stroke-linejoin="round" stroke-width="3.000000"
	d="
M836.500000,431.500000 
	C834.676147,442.765259 835.822876,454.205261 834.500000,465.500000 
"/>
<path fill="none" opacity="1.000000" stroke="#6B6B6B" stroke-linecap="round" stroke-linejoin="round" stroke-width="3.000000"
	d="
M467.000000,434.500000 
	C463.882629,438.411163 464.755402,444.470856 460.000000,447.500000 
"/>
<path fill="none" opacity="1.000000" stroke="#6B6B6B" stroke-linecap="round" stroke-linejoin="round" stroke-width="3.000000"
	d="
M1212.000000,344.000000 
	C1210.126709,348.307404 1208.926758,352.739502 1209.500000,357.500000 
"/>
<path fill="none" opacity="1.000000" stroke="#6B6B6B" stroke-linecap="round" stroke-linejoin="round" stroke-width="3.000000"
	d="
M912.500000,447.500000 
	C911.115906,454.863556 916.170776,460.955078 916.648804,467.989899 
	C916.711792,468.916931 917.806458,470.693542 919.500000,471.000000 
"/>
<path fill="none" opacity="1.000000" stroke="#6B6B6B" stroke-linecap="round" stroke-linejoin="round" stroke-width="3.000000"
	d="
M489.500000,435.500000 
	C487.977295,442.259460 489.832001,448.850677 490.549927,455.494598 
	C490.572540,455.703827 491.333344,455.833344 491.750000,456.000000 
"/>
<path fill="none" opacity="1.000000" stroke="#6B6B6B" stroke-linecap="round" stroke-linejoin="round" stroke-width="3.000000"
	d="
M433.000000,441.500000 
	C436.265015,443.618134 434.536957,447.201752 435.407593,450.028473 
	C435.848297,451.459229 435.537231,453.139862 436.500000,454.500000 
"/>
<path fill="none" opacity="1.000000" stroke="#6B6B6B" stroke-linecap="round" stroke-linejoin="round" stroke-width="3.000000"
	d="
M929.499939,473.500000 
	C929.833313,477.833344 930.166626,482.166656 930.499939,486.500000 
"/>
<path fill="none" opacity="1.000000" stroke="#6B6B6B" stroke-linecap="round" stroke-linejoin="round" stroke-width="2.000000"
	d="
M1270.000000,327.500000 
	C1269.947266,332.051910 1268.982544,336.393433 1267.000000,340.500000 
"/>
<path fill="none" opacity="1.000000" stroke="#6B6B6B" stroke-linecap="round" stroke-linejoin="round" stroke-width="3.000000"
	d="
M947.000000,305.000000 
	C948.480835,310.624878 943.629456,313.463623 941.500000,317.500000 
"/>
<path fill="none" opacity="1.000000" stroke="#6B6B6B" stroke-linecap="round" stroke-linejoin="round" stroke-width="3.000000"
	d="
M807.500000,457.000000 
	C809.403748,458.749542 810.400146,461.190521 810.346924,463.496460 
	C810.289978,465.963440 811.671753,467.080780 813.000000,468.500000 
"/>
<path fill="none" opacity="1.000000" stroke="#6B6B6B" stroke-linecap="round" stroke-linejoin="round" stroke-width="2.000000"
	d="
M841.000000,487.500000 
	C839.400208,491.189880 835.977234,494.641968 839.500000,499.000000 
"/>
<path fill="none" opacity="1.000000" stroke="#6B6B6B" stroke-linecap="round" stroke-linejoin="round" stroke-width="3.000000"
	d="
M548.000000,480.500000 
	C547.803284,485.199158 548.275330,489.872009 546.678589,494.560822 
	C545.889709,496.877289 547.600891,499.833344 546.500000,502.500000 
"/>
<path fill="none" opacity="1.000000" stroke="#6B6B6B" stroke-linecap="round" stroke-linejoin="round" stroke-width="2.000000"
	d="
M688.500000,306.500000 
	C692.666687,309.000000 696.833313,311.500000 701.000000,314.000000 
"/>
<path fill="none" opacity="1.000000" stroke="#6B6B6B" stroke-linecap="round" stroke-linejoin="round" stroke-width="4.000000"
	d="
M284.500000,370.500000 
	C285.352264,378.812592 283.079163,387.250153 285.500000,395.500000 
"/>
<path fill="none" opacity="1.000000" stroke="#6B6B6B" stroke-linecap="round" stroke-linejoin="round" stroke-width="3.000000"
	d="
M648.500000,384.500000 
	C644.500000,383.962982 640.500000,383.496521 636.500000,384.500000 
"/>
<path fill="none" opacity="1.000000" stroke="#6B6B6B" stroke-linecap="round" stroke-linejoin="round" stroke-width="3.000000"
	d="
M830.000000,447.500000 
	C828.142151,451.429535 829.382629,455.488159 829.500000,459.500000 
"/>
<path fill="none" opacity="1.000000" stroke="#6B6B6B" stroke-linecap="round" stroke-linejoin="round" stroke-width="3.000000"
	d="
M594.499939,395.500000 
	C593.666626,399.500000 592.833313,403.500000 591.999939,407.500000 
"/>
<path fill="none" opacity="1.000000" stroke="#6B6B6B" stroke-linecap="round" stroke-linejoin="round" stroke-width="4.000000"
	d="
M1261.500000,318.500000 
	C1261.333252,319.833344 1260.558594,321.530090 1261.101929,322.439117 
	C1263.945923,327.197968 1263.518921,332.355804 1263.506104,337.500000 
	C1263.500854,339.558990 1263.068848,341.990082 1266.500000,341.500000 
"/>
<path fill="none" opacity="1.000000" stroke="#6B6B6B" stroke-linecap="round" stroke-linejoin="round" stroke-width="2.000000"
	d="
M404.500000,288.500000 
	C407.907196,292.255249 413.179749,294.229950 415.000000,299.500000 
"/>
<path fill="none" opacity="1.000000" stroke="#6B6B6B" stroke-linecap="round" stroke-linejoin="round" stroke-width="3.000000"
	d="
M475.999969,461.500000 
	C476.499969,465.500000 476.999969,469.500000 477.499969,473.500000 
"/>
<path fill="none" opacity="1.000000" stroke="#6B6B6B" stroke-linecap="round" stroke-linejoin="round" stroke-width="4.000000"
	d="
M457.000000,440.500000 
	C459.199554,445.456238 460.638763,450.567749 459.174835,455.979675 
	C458.804108,457.350250 459.580688,458.321625 459.500000,459.500000 
"/>
<path fill="none" opacity="1.000000" stroke="#6B6B6B" stroke-linecap="round" stroke-linejoin="round" stroke-width="3.000000"
	d="
M515.000000,458.500000 
	C515.366577,462.669586 517.089539,466.367401 519.000000,470.000000 
"/>
<path fill="none" opacity="1.000000" stroke="#6B6B6B" stroke-linecap="round" stroke-linejoin="round" stroke-width="3.000000"
	d="
M1112.500000,445.500000 
	C1111.957397,449.396545 1112.905029,453.617035 1110.000000,457.000000 
"/>
<path fill="none" opacity="1.000000" stroke="#6B6B6B" stroke-linecap="round" stroke-linejoin="round" stroke-width="2.000000"
	d="
M852.000000,147.000000 
	C848.204590,148.038437 844.330200,147.260986 840.500000,147.500000 
"/>
<path fill="none" opacity="1.000000" stroke="#6B6B6B" stroke-linecap="round" stroke-linejoin="round" stroke-width="3.000000"
	d="
M665.500000,331.000000 
	C664.890808,334.867065 664.217285,338.736938 666.000000,342.500000 
"/>
<path fill="none" opacity="1.000000" stroke="#6B6B6B" stroke-linecap="round" stroke-linejoin="round" stroke-width="2.000000"
	d="
M790.500000,155.500000 
	C794.333313,156.666672 798.166687,157.833344 802.000000,159.000000 
"/>
<path fill="none" opacity="1.000000" stroke="#6B6B6B" stroke-linecap="round" stroke-linejoin="round" stroke-width="2.000000"
	d="
M479.000000,440.000000 
	C479.833344,443.166656 480.633514,446.342682 481.520691,449.494171 
	C481.779205,450.412415 481.935974,451.961395 483.500000,450.500000 
"/>
<path fill="none" opacity="1.000000" stroke="#6B6B6B" stroke-linecap="round" stroke-linejoin="round" stroke-width="2.000000"
	d="
M715.500000,311.500000 
	C718.673279,313.824371 723.449219,313.973663 725.000000,318.500000 
"/>
<path fill="none" opacity="1.000000" stroke="#6B6B6B" stroke-linecap="round" stroke-linejoin="round" stroke-width="2.000000"
	d="
M192.499985,325.500000 
	C191.666656,329.166656 190.833328,332.833344 189.999985,336.500000 
"/>
<path fill="none" opacity="1.000000" stroke="#6B6B6B" stroke-linecap="round" stroke-linejoin="round" stroke-width="2.000000"
	d="
M525.000000,459.500000 
	C522.066345,462.390350 523.267883,466.856018 521.000000,470.000000 
"/>
<path fill="none" opacity="1.000000" stroke="#6B6B6B" stroke-linecap="round" stroke-linejoin="round" stroke-width="3.000000"
	d="
M780.000000,480.500000 
	C780.182617,484.426178 782.065857,487.587036 784.312866,490.696686 
	C788.204529,487.129578 787.426697,484.166321 784.086487,480.911224 
	C782.748840,479.607666 781.554443,477.687378 781.500000,475.500000 
"/>
<path fill="none" opacity="1.000000" stroke="#6B6B6B" stroke-linecap="round" stroke-linejoin="round" stroke-width="2.000000"
	d="
M311.500000,224.500000 
	C307.962646,223.882248 304.592499,226.775986 301.000000,225.000000 
"/>
<path fill="none" opacity="1.000000" stroke="#6B6B6B" stroke-linecap="round" stroke-linejoin="round" stroke-width="3.000000"
	d="
M1175.000000,446.500000 
	C1172.951050,449.887024 1172.208374,453.958374 1169.500000,457.000000 
"/>
<path fill="none" opacity="1.000000" stroke="#6B6B6B" stroke-linecap="round" stroke-linejoin="round" stroke-width="3.000000"
	d="
M520.000000,471.250000 
	C519.475342,477.430847 523.067139,482.657135 524.000000,488.500000 
"/>
<path fill="none" opacity="1.000000" stroke="#6B6B6B" stroke-linecap="round" stroke-linejoin="round" stroke-width="3.000000"
	d="
M792.000000,469.000000 
	C794.680237,472.300568 796.984924,475.466949 794.135742,480.083771 
	C793.121460,481.727325 793.666687,484.333344 793.500061,486.500000 
"/>
<path fill="none" opacity="1.000000" stroke="#6B6B6B" stroke-linecap="round" stroke-linejoin="round" stroke-width="4.000000"
	d="
M534.000000,494.000000 
	C536.552429,496.676422 535.625549,500.451569 537.000000,503.500000 
"/>
<path fill="none" opacity="1.000000" stroke="#6B6B6B" stroke-linecap="round" stroke-linejoin="round" stroke-width="3.000000"
	d="
M829.000000,460.500000 
	C826.970703,463.245117 828.842163,466.640350 827.500000,469.500000 
"/>
<path fill="none" opacity="1.000000" stroke="#6B6B6B" stroke-linecap="round" stroke-linejoin="round" stroke-width="4.000000"
	d="
M460.000000,460.500000 
	C462.097443,463.148865 462.652802,466.226074 462.500000,469.500000 
"/>
<path fill="none" opacity="1.000000" stroke="#6B6B6B" stroke-linecap="round" stroke-linejoin="round" stroke-width="3.000000"
	d="
M810.000000,467.500000 
	C808.021423,470.317200 809.424500,473.510132 809.000000,476.500000 
"/>
<path fill="none" opacity="1.000000" stroke="#6B6B6B" stroke-linecap="round" stroke-linejoin="round" stroke-width="2.000000"
	d="
M533.500000,480.500000 
	C534.514099,484.713898 531.313538,488.759216 533.000000,493.000000 
"/>
<path fill="none" opacity="1.000000" stroke="#6B6B6B" stroke-linecap="round" stroke-linejoin="round" stroke-width="4.000000"
	d="
M482.000000,451.500000 
	C480.155273,454.406769 481.869110,457.511261 481.500000,460.500000 
"/>
<path fill="none" opacity="1.000000" stroke="#6B6B6B" stroke-linecap="round" stroke-linejoin="round" stroke-width="2.000000"
	d="
M655.500000,336.500000 
	C650.185913,335.858490 644.863831,335.344971 639.500000,335.500000 
"/>
<path fill="none" opacity="1.000000" stroke="#6B6B6B" stroke-linecap="round" stroke-linejoin="round" stroke-width="3.000000"
	d="
M1042.500000,436.500000 
	C1040.876953,439.145386 1041.552002,442.737091 1039.000000,445.000000 
"/>
<path fill="none" opacity="1.000000" stroke="#6B6B6B" stroke-linecap="round" stroke-linejoin="round" stroke-width="2.000000"
	d="
M797.500000,460.500000 
	C797.370728,463.387756 797.681030,466.223785 798.500000,469.000000 
"/>
<path fill="none" opacity="1.000000" stroke="#6B6B6B" stroke-linecap="round" stroke-linejoin="round" stroke-width="4.000000"
	d="
M1157.500000,444.500000 
	C1160.508423,446.690002 1161.525635,450.746735 1165.000000,452.500000 
"/>
<path fill="none" opacity="1.000000" stroke="#6B6B6B" stroke-linecap="round" stroke-linejoin="round" stroke-width="3.000000"
	d="
M772.500000,479.500000 
	C771.911194,484.825012 770.761536,490.097443 771.000000,495.500000 
"/>
<path fill="none" opacity="1.000000" stroke="#6B6B6B" stroke-linecap="round" stroke-linejoin="round" stroke-width="3.000000"
	d="
M737.000000,513.500000 
	C734.798157,515.344604 735.416199,518.196228 734.500000,520.500000 
"/>
<path fill="none" opacity="1.000000" stroke="#6B6B6B" stroke-linecap="round" stroke-linejoin="round" stroke-width="2.000000"
	d="
M1227.000000,316.000000 
	C1224.362671,317.894104 1221.994385,315.750977 1219.500000,315.500000 
"/>
<path fill="none" opacity="1.000000" stroke="#6B6B6B" stroke-linecap="round" stroke-linejoin="round" stroke-width="3.000000"
	d="
M668.000000,355.000000 
	C668.000000,357.500000 668.000000,360.000000 668.000000,362.500000 
"/>
<path fill="none" opacity="1.000000" stroke="#6B6B6B" stroke-linecap="round" stroke-linejoin="round" stroke-width="4.000000"
	d="
M238.500000,363.500000 
	C242.782990,365.909393 240.623291,368.721466 239.000000,371.500000 
"/>
<path fill="none" opacity="1.000000" stroke="#6B6B6B" stroke-linecap="round" stroke-linejoin="round" stroke-width="3.000000"
	d="
M841.000000,507.500000 
	C841.000000,511.833344 841.000000,516.166687 841.000000,520.500000 
"/>
<path fill="none" opacity="1.000000" stroke="#6B6B6B" stroke-linecap="round" stroke-linejoin="round" stroke-width="3.000000"
	d="
M697.000000,360.500000 
	C695.787476,362.473236 696.621826,365.640533 693.500000,366.500000 
"/>
<path fill="none" opacity="1.000000" stroke="#6B6B6B" stroke-linecap="round" stroke-linejoin="round" stroke-width="3.000000"
	d="
M596.500000,353.500000 
	C597.000000,355.833344 597.500000,358.166656 598.000000,360.500000 
"/>
<path fill="none" opacity="1.000000" stroke="#6B6B6B" stroke-linecap="round" stroke-linejoin="round" stroke-width="3.000000"
	d="
M663.500061,354.500000 
	C663.000061,356.833344 662.500061,359.166687 662.000061,361.500000 
"/>
<path fill="none" opacity="1.000000" stroke="#6B6B6B" stroke-linecap="round" stroke-linejoin="round" stroke-width="4.000000"
	d="
M51.500000,270.500000 
	C49.762257,273.291534 47.315918,275.666229 46.500000,279.000000 
"/>
<path fill="none" opacity="1.000000" stroke="#6B6B6B" stroke-linecap="round" stroke-linejoin="round" stroke-width="4.000000"
	d="
M42.000000,270.750000 
	C44.705441,270.586426 47.474323,269.746094 50.000000,271.500000 
"/>
<path fill="none" opacity="1.000000" stroke="#6B6B6B" stroke-linecap="round" stroke-linejoin="round" stroke-width="4.000000"
	d="
M229.500000,350.000000 
	C226.130295,349.702240 223.099213,351.012939 220.000000,352.000000 
"/>
<path fill="none" opacity="1.000000" stroke="#6B6B6B" stroke-linecap="round" stroke-linejoin="round" stroke-width="3.000000"
	d="
M845.500000,455.500000 
	C846.414124,457.380188 845.487671,460.264282 848.500000,461.000000 
"/>
<path fill="none" opacity="1.000000" stroke="#6B6B6B" stroke-linecap="round" stroke-linejoin="round" stroke-width="3.000000"
	d="
M859.000000,475.500000 
	C857.802734,477.666656 859.113220,479.833344 859.000000,482.000000 
"/>
<path fill="none" opacity="1.000000" stroke="#6B6B6B" stroke-linecap="round" stroke-linejoin="round" stroke-width="3.000000"
	d="
M545.000000,496.500000 
	C542.552917,498.623993 541.839233,501.398071 542.000000,504.500000 
"/>
<path fill="none" opacity="1.000000" stroke="#6B6B6B" stroke-linecap="round" stroke-linejoin="round" stroke-width="3.000000"
	d="
M550.000000,494.500000 
	C552.006775,496.009949 552.215820,498.568542 553.500000,500.500000 
"/>
<path fill="none" opacity="1.000000" stroke="#6B6B6B" stroke-linecap="round" stroke-linejoin="round" stroke-width="3.000000"
	d="
M767.500000,475.500000 
	C766.316772,477.329193 767.862244,479.840546 766.000000,481.500000 
"/>
<path fill="none" opacity="1.000000" stroke="#6B6B6B" stroke-linecap="round" stroke-linejoin="round" stroke-width="3.000000"
	d="
M829.500000,444.500000 
	C830.547058,446.786285 831.946777,448.719879 834.500000,449.500000 
"/>
<path fill="none" opacity="1.000000" stroke="#6B6B6B" stroke-linecap="round" stroke-linejoin="round" stroke-width="4.000000"
	d="
M1026.500000,408.500000 
	C1023.315125,409.790131 1020.719299,412.261993 1017.009888,412.606537 
	C1014.850769,412.807037 1012.713745,413.975494 1012.000000,416.500000 
"/>
<path fill="none" opacity="1.000000" stroke="#6B6B6B" stroke-linecap="round" stroke-linejoin="round" stroke-width="2.000000"
	d="
M1002.500000,477.500000 
	C1002.467407,479.444885 1002.911865,481.654724 1000.000000,482.000000 
"/>
<path fill="none" opacity="1.000000" stroke="#6B6B6B" stroke-linecap="round" stroke-linejoin="round" stroke-width="2.000000"
	d="
M917.000000,475.000000 
	C918.687439,476.307373 919.391052,478.844543 922.000000,479.000000 
"/>
<path fill="none" opacity="1.000000" stroke="#6B6B6B" stroke-linecap="round" stroke-linejoin="round" stroke-width="5.000000"
	d="
M42.500000,281.000000 
	C44.480904,280.552094 45.869015,278.460205 48.568089,279.869598 
	C51.257473,281.273956 54.500000,280.631073 57.500000,280.000000 
"/>
<path fill="none" opacity="1.000000" stroke="#6B6B6B" stroke-linecap="round" stroke-linejoin="round" stroke-width="4.000000"
	d="
M32.500000,372.500000 
	C28.909357,372.406433 25.891037,373.114105 25.500000,377.500000 
"/>
<path fill="none" opacity="1.000000" stroke="#6B6B6B" stroke-linecap="round" stroke-linejoin="round" stroke-width="2.000000"
	d="
M127.500000,301.500000 
	C127.862091,303.425293 126.736412,304.904266 126.000000,306.500000 
"/>
<path fill="none" opacity="1.000000" stroke="#6B6B6B" stroke-linecap="round" stroke-linejoin="round" stroke-width="3.000000"
	d="
M458.000000,461.500000 
	C456.032440,464.392792 457.888123,468.090485 456.000000,471.000000 
"/>
<path fill="none" opacity="1.000000" stroke="#6B6B6B" stroke-linecap="round" stroke-linejoin="round" stroke-width="2.000000"
	d="
M1028.500000,462.500000 
	C1028.461060,464.328369 1028.415771,466.158600 1030.000000,467.500000 
"/>
<path fill="none" opacity="1.000000" stroke="#6B6B6B" stroke-linecap="round" stroke-linejoin="round" stroke-width="2.000000"
	d="
M815.000000,464.500000 
	C813.642700,465.577332 815.357300,467.422668 814.000000,468.500000 
"/>
<path fill="none" opacity="1.000000" stroke="#6B6B6B" stroke-linecap="round" stroke-linejoin="round" stroke-width="2.000000"
	d="
M1133.500000,470.500000 
	C1134.169800,472.159363 1135.120605,473.162964 1137.000000,472.000000 
"/>
<path fill="none" opacity="1.000000" stroke="#6B6B6B" stroke-linecap="round" stroke-linejoin="round" stroke-width="4.000000"
	d="
M1156.500000,406.500000 
	C1156.686279,408.349670 1156.195923,409.589417 1153.999512,409.513977 
	C1152.208862,409.452515 1150.275146,409.202454 1149.500000,411.500000 
"/>
<path fill="none" opacity="1.000000" stroke="#6B6B6B" stroke-linecap="round" stroke-linejoin="round" stroke-width="2.000000"
	d="
M1267.500000,325.500000 
	C1267.089111,326.812836 1266.761108,328.173004 1265.500000,329.000000 
"/>
<path fill="none" opacity="1.000000" stroke="#6B6B6B" stroke-linecap="round" stroke-linejoin="round" stroke-width="2.000000"
	d="
M763.000000,487.500000 
	C761.780762,489.758148 761.778748,492.103241 762.500000,494.500000 
"/>
<path fill="none" opacity="1.000000" stroke="#6B6B6B" stroke-linecap="round" stroke-linejoin="round" stroke-width="3.000000"
	d="
M844.500000,517.500000 
	C846.312744,518.861572 849.905945,517.775208 850.000000,521.500000 
"/>
</svg>


